0
SECTION
2
HEADER
9
$INSUNITS
70
1
9
$ACADVER
1
AC1014
9
$HANDSEED
5
FFFF
0
ENDSEC
0
SECTION
2
TABLES
0
TABLE
2
VPORT
5
8
100
AcDbSymbolTable
0
ENDTAB
0
TABLE
2
LTYPE
5
5
100
AcDbSymbolTable
0
LTYPE
5
14
100
AcDbSymbolTableRecord
100
AcDbLinetypeTableRecord
2
BYBLOCK
70
0
0
LTYPE
5
15
100
AcDbSymbolTableRecord
100
AcDbLinetypeTableRecord
2
BYLAYER
70
0
0
ENDTAB
0
TABLE
2
LAYER
5
2
100
AcDbSymbolTable
70
2
0
LAYER
5
50
100
AcDbSymbolTableRecord
100
AcDbLayerTableRecord
2
0
70
0
6
CONTINUOUS
0
ENDTAB
0
TABLE
2
STYLE
5
3
100
AcDbSymbolTable
70
1
0
STYLE
5
11
100
AcDbSymbolTableRecord
100
AcDbTextStyleTableRecord
2
STANDARD
70
0
0
ENDTAB
0
TABLE
2
VIEW
5
6
100
AcDbSymbolTable
70
0
0
ENDTAB
0
TABLE
2
UCS
5
7
100
AcDbSymbolTable
70
0
0
ENDTAB
0
TABLE
2
APPID
5
9
100
AcDbSymbolTable
70
2
0
APPID
5
12
100
AcDbSymbolTableRecord
100
AcDbRegAppTableRecord
2
ACAD
70
0
0
ENDTAB
0
TABLE
2
DIMSTYLE
5
A
100
AcDbSymbolTable
70
1
0
ENDTAB
0
TABLE
2
BLOCK_RECORD
5
1
100
AcDbSymbolTable
70
1
0
BLOCK_RECORD
5
1F
100
AcDbSymbolTableRecord
100
AcDbBlockTableRecord
2
*MODEL_SPACE
0
BLOCK_RECORD
5
1B
100
AcDbSymbolTableRecord
100
AcDbBlockTableRecord
2
*PAPER_SPACE
0
ENDTAB
0
ENDSEC
0
SECTION
2
BLOCKS
0
BLOCK
5
20
100
AcDbEntity
100
AcDbBlockBegin
2
*MODEL_SPACE
0
ENDBLK
5
21
100
AcDbEntity
100
AcDbBlockEnd
0
BLOCK
5
1C
100
AcDbEntity
100
AcDbBlockBegin
2
*PAPER_SPACE
0
ENDBLK
5
1D
100
AcDbEntity
100
AcDbBlockEnd
0
ENDSEC
0
SECTION
2
ENTITIES
0
LWPOLYLINE
5
100
100
AcDbEntity
8
0
100
AcDbPolyline
90
8
70
1
43
0.0
10
-3.8749999999999996
20
1.6249999699630135
10
-1.7593589741721278
20
1.6249999699630135
42
-0.63983629717357926
10
-1.664237922367839
20
1.4189013540460587
42
0.36842735055191489
10
-1.6642379223678394
20
-1.4189014141200302
42
-0.63983629717358004
10
-1.7593589741721283
20
-1.6250000300369853
10
-3.8749999999999996
20
-1.6250000300369858
42
-0.41421356237309503
10
-3.9999999999999996
20
-1.5000000300369853
10
-3.9999999999999996
20
1.499999969963014
42
-0.41421356237309426
0
LWPOLYLINE
5
101
100
AcDbEntity
8
0
100
AcDbPolyline
90
8
70
1
43
0.0
10
3.8749999999999996
20
-1.6250000300369853
10
1.7593589741721283
20
-1.6250000300369853
42
-0.63983629717357937
10
1.6642379223678394
20
-1.4189014141200307
42
0.36842735055191494
10
1.664237922367839
20
1.4189013540460587
42
-0.63983629717357926
10
1.7593589741721278
20
1.6249999699630135
10
3.8749999999999996
20
1.624999969963014
42
-0.41421356237309503
10
3.9999999999999996
20
1.4999999699630138
10
3.9999999999999996
20
-1.5000000300369858
42
-0.41421356237309426
0
LWPOLYLINE
5
102
100
AcDbEntity
8
0
100
AcDbPolyline
90
8
70
1
43
0.0
10
-0.94352323556257711
20
0.41634354185966127
42
0.21082582501751232
10
-0.943523235562577
20
-0.41634360193363218
42
-0.3975658650570752
10
-0.97224590822081558
20
-0.49722066660471215
10
-1.445262459521145
20
-0.73912818069754049
42
-0.42553038229615459
10
-1.5304192797823117
20
-0.70977874771637117
42
-0.22060498056299624
10
-1.5304192797823106
20
0.7097786876424016
42
-0.42553038229615492
10
-1.4452624595211443
20
0.73912812062357003
10
-0.9722459082208158
20
0.49722060653074102
42
-0.39756586505708136
0
LWPOLYLINE
5
103
100
AcDbEntity
8
0
100
AcDbPolyline
90
8
70
1
43
0.0
10
-0.41634357189664695
20
-0.94352326559956279
42
0.21082582501751232
10
0.41634357189664639
20
-0.94352326559956268
42
-0.39756586505707675
10
0.49722063656772647
20
-0.97224593825780148
10
0.73912815066055471
20
-1.4452624895581305
42
-0.4255303822961567
10
0.70977871767938538
20
-1.5304193098192975
42
-0.22060498056299624
10
-0.70977871767938727
20
-1.5304193098192964
42
-0.42553038229615697
10
-0.73912815066055593
20
-1.4452624895581296
10
-0.49722063656772664
20
-0.97224593825780148
42
-0.39756586505707836
0
LWPOLYLINE
5
104
100
AcDbEntity
8
0
100
AcDbPolyline
90
8
70
1
43
0.0
10
0.94352323556257711
20
-0.41634360193363257
42
0.21082582501751232
10
0.943523235562577
20
0.41634354185966072
42
-0.39756586505707675
10
0.9722459082208158
20
0.49722060653074079
10
1.4452624595211452
20
0.73912812062356903
42
-0.42553038229615459
10
1.5304192797823122
20
0.70977868764239971
42
-0.22060498056299624
10
1.5304192797823106
20
-0.70977874771637306
42
-0.42553038229615769
10
1.4452624595211441
20
-0.7391281806975416
10
0.9722459082208158
20
-0.49722066660471231
42
-0.39756586505707836
0
LWPOLYLINE
5
105
100
AcDbEntity
8
0
100
AcDbPolyline
90
8
70
1
43
0.0
10
0.41634357189664711
20
0.94352320552559132
42
0.21082582501751224
10
-0.41634357189664623
20
0.94352320552559132
42
-0.39756586505707631
10
-0.49722063656772647
20
0.97224587818383013
10
-0.73912815066055459
20
1.4452624294841594
42
-0.42553038229615409
10
-0.70977871767938538
20
1.5304192497453259
42
-0.22060498056299624
10
0.70977871767938749
20
1.5304192497453253
42
-0.42553038229615697
10
0.73912815066055604
20
1.4452624294841583
10
0.49722063656772697
20
0.97224587818382979
42
-0.39756586505707825
0
CIRCLE
5
106
100
AcDbEntity
8
0
100
AcDbCircle
10
0
20
-3.0036985673097013e-08
30
0
40
0.89049999999999996
210
0
220
0
230
1
0
CIRCLE
5
107
100
AcDbEntity
8
0
100
AcDbCircle
10
1
20
0.99999996996301443
30
0
40
0.18499999999999997
210
0
220
-0
230
1
0
CIRCLE
5
108
100
AcDbEntity
8
0
100
AcDbCircle
10
-0.99999999999999978
20
0.99999996996301443
30
0
40
0.18499999999999997
210
0
220
-0
230
1
0
CIRCLE
5
109
100
AcDbEntity
8
0
100
AcDbCircle
10
-0.99999999999999989
20
-1.0000000300369856
30
0
40
0.18499999999999997
210
0
220
-0
230
1
0
CIRCLE
5
110
100
AcDbEntity
8
0
100
AcDbCircle
10
1
20
-1.0000000300369853
30
0
40
0.18499999999999997
210
0
220
-0
230
1
0
LWPOLYLINE
5
111
100
AcDbEntity
8
0
100
AcDbPolyline
90
4
70
1
43
0.0
10
4.9999999999999982
20
2.4999999699630138
10
-5
20
2.4999999699630138
10
-5
20
-2.5000000300369853
10
4.9999999999999982
20
-2.5000000300369853
0
ENDSEC
0
SECTION
2
OBJECTS
0
DICTIONARY
5
C
100
AcDbDictionary
3
ACAD_GROUP
350
D
3
ACAD_MLINESTYLE
350
17
0
DICTIONARY
5
D
100
AcDbDictionary
0
DICTIONARY
5
1A
330
C
100
AcDbDictionary
0
DICTIONARY
5
17
100
AcDbDictionary
0
ENDSEC
0
EOF
