0
SECTION
2
HEADER
9
$INSUNITS
70
1
9
$ACADVER
1
AC1014
9
$HANDSEED
5
FFFF
0
ENDSEC
0
SECTION
2
TABLES
0
TABLE
2
VPORT
5
8
100
AcDbSymbolTable
0
ENDTAB
0
TABLE
2
LTYPE
5
5
100
AcDbSymbolTable
0
LTYPE
5
14
100
AcDbSymbolTableRecord
100
AcDbLinetypeTableRecord
2
BYBLOCK
70
0
0
LTYPE
5
15
100
AcDbSymbolTableRecord
100
AcDbLinetypeTableRecord
2
BYLAYER
70
0
0
ENDTAB
0
TABLE
2
LAYER
5
2
100
AcDbSymbolTable
70
2
0
LAYER
5
50
100
AcDbSymbolTableRecord
100
AcDbLayerTableRecord
2
0
70
0
6
CONTINUOUS
0
ENDTAB
0
TABLE
2
STYLE
5
3
100
AcDbSymbolTable
70
1
0
STYLE
5
11
100
AcDbSymbolTableRecord
100
AcDbTextStyleTableRecord
2
STANDARD
70
0
0
ENDTAB
0
TABLE
2
VIEW
5
6
100
AcDbSymbolTable
70
0
0
ENDTAB
0
TABLE
2
UCS
5
7
100
AcDbSymbolTable
70
0
0
ENDTAB
0
TABLE
2
APPID
5
9
100
AcDbSymbolTable
70
2
0
APPID
5
12
100
AcDbSymbolTableRecord
100
AcDbRegAppTableRecord
2
ACAD
70
0
0
ENDTAB
0
TABLE
2
DIMSTYLE
5
A
100
AcDbSymbolTable
70
1
0
ENDTAB
0
TABLE
2
BLOCK_RECORD
5
1
100
AcDbSymbolTable
70
1
0
BLOCK_RECORD
5
1F
100
AcDbSymbolTableRecord
100
AcDbBlockTableRecord
2
*MODEL_SPACE
0
BLOCK_RECORD
5
1B
100
AcDbSymbolTableRecord
100
AcDbBlockTableRecord
2
*PAPER_SPACE
0
ENDTAB
0
ENDSEC
0
SECTION
2
BLOCKS
0
BLOCK
5
20
100
AcDbEntity
100
AcDbBlockBegin
2
*MODEL_SPACE
0
ENDBLK
5
21
100
AcDbEntity
100
AcDbBlockEnd
0
BLOCK
5
1C
100
AcDbEntity
100
AcDbBlockBegin
2
*PAPER_SPACE
0
ENDBLK
5
1D
100
AcDbEntity
100
AcDbBlockEnd
0
ENDSEC
0
SECTION
2
ENTITIES
0
LWPOLYLINE
5
100
100
AcDbEntity
8
0
100
AcDbPolyline
90
6
70
1
43
0.0
10
-3.434048622550538
20
6.2267390011781201
42
0.57733694866309648
10
-3.4702259858346243
20
6.0132791293634744
10
0.41096706433330782
20
2.8001625343494085
42
0.89231998529915724
10
0.59004401156808639
20
2.9722879426472653
10
-2.4120811605639458
20
6.905672543534096
42
0.52570675572207604
10
-2.6177713072314894
20
6.8955592923456894
42
-0.16687266880896065
0
LWPOLYLINE
5
101
100
AcDbEntity
8
0
100
AcDbPolyline
90
6
70
1
43
0.0
10
-3.4019929936493729
20
5.1454059355415813
42
0.79272505027696571
10
-3.5958994147062557
20
4.9982805040762912
10
-2.0799901705175325
20
1.5932841391355244
42
0.29621968101530682
10
-1.1664354605889993
20
1.0000000006007392
10
1.2583243527638306
20
1.0000000006007392
42
0.702679591062494
10
1.3380364350796474
20
1.2212859493828774
0
CIRCLE
5
102
100
AcDbEntity
8
0
100
AcDbCircle
10
3.003698567212497e-08
20
0.3750000006007394
30
0
40
0.19849999999999998
210
0
220
-0
230
1
0
CIRCLE
5
103
100
AcDbEntity
8
0
100
AcDbCircle
10
-1.9999999699630142
20
0.3750000006007394
30
0
40
0.19849999999999998
210
0
220
-0
230
1
0
CIRCLE
5
104
100
AcDbEntity
8
0
100
AcDbCircle
10
2.0000000300369853
20
0.37500000060073951
30
0
40
0.19849999999999998
210
0
220
-0
230
1
0
CIRCLE
5
105
100
AcDbEntity
8
0
100
AcDbCircle
10
-3.5312499699630235
20
8.5618988166486503
30
0
40
0.10049999999999977
210
0
220
0
230
1
0
LWPOLYLINE
5
106
100
AcDbEntity
8
0
100
AcDbPolyline
90
6
70
1
43
0.0
10
-4.2944486072497368
20
7.750000000600747
10
-4.1472242886063855
20
8.0050000006007522
10
-3.8527756513196745
20
8.0050000006007593
10
-3.7055513326763143
20
7.7500000006007603
10
-3.8527756513196656
20
7.4950000006007569
10
-4.1472242886063757
20
7.4950000006007489
0
CIRCLE
5
107
100
AcDbEntity
8
0
100
AcDbCircle
10
-4.9374999699630271
20
7.7500000006007443
30
0
40
0.10049999999999977
210
0
220
0
230
1
0
CIRCLE
5
108
100
AcDbEntity
8
0
100
AcDbCircle
10
-4.4687499699630289
20
6.9381011845528295
30
0
40
0.10049999999999977
210
0
220
0
230
1
0
CIRCLE
5
109
100
AcDbEntity
8
0
100
AcDbCircle
10
-4.4687499699630244
20
8.5618988166486538
30
0
40
0.10049999999999977
210
0
220
0
230
1
0
CIRCLE
5
110
100
AcDbEntity
8
0
100
AcDbCircle
10
-3.5312499699630284
20
6.9381011845528269
30
0
40
0.10049999999999977
210
0
220
0
230
1
0
CIRCLE
5
111
100
AcDbEntity
8
0
100
AcDbCircle
10
-3.0624999699630262
20
7.7500000006007363
30
0
40
0.10049999999999977
210
0
220
0
230
1
0
LWPOLYLINE
5
112
100
AcDbEntity
8
0
100
AcDbPolyline
90
8
70
1
43
0.0
10
2.5000000300369853
20
0.75000000060073901
42
0.16443916567692091
10
2.0449632729425717
20
2.0961891901146377
10
-2.9069864558544389
20
8.5842340552736616
42
0.88976516205475897
10
-5.2561376961145552
20
7.1907656910855815
10
-2.6016789353276786
20
1.2283886780727544
42
-0.10509848539796568
10
-2.4999999699630138
20
0.75000000060073946
10
-2.4999999699630138
20
6.0073940572714146e-10
10
2.5000000300369853
20
6.0073940572714146e-10
0
ENDSEC
0
SECTION
2
OBJECTS
0
DICTIONARY
5
C
100
AcDbDictionary
3
ACAD_GROUP
350
D
3
ACAD_MLINESTYLE
350
17
0
DICTIONARY
5
D
100
AcDbDictionary
0
DICTIONARY
5
1A
330
C
100
AcDbDictionary
0
DICTIONARY
5
17
100
AcDbDictionary
0
ENDSEC
0
EOF
