0
SECTION
2
HEADER
9
$INSUNITS
70
1
9
$ACADVER
1
AC1014
9
$HANDSEED
5
FFFF
0
ENDSEC
0
SECTION
2
TABLES
0
TABLE
2
VPORT
5
8
100
AcDbSymbolTable
0
ENDTAB
0
TABLE
2
LTYPE
5
5
100
AcDbSymbolTable
0
LTYPE
5
14
100
AcDbSymbolTableRecord
100
AcDbLinetypeTableRecord
2
BYBLOCK
70
0
0
LTYPE
5
15
100
AcDbSymbolTableRecord
100
AcDbLinetypeTableRecord
2
BYLAYER
70
0
0
ENDTAB
0
TABLE
2
LAYER
5
2
100
AcDbSymbolTable
70
2
0
LAYER
5
50
100
AcDbSymbolTableRecord
100
AcDbLayerTableRecord
2
0
70
0
6
CONTINUOUS
0
ENDTAB
0
TABLE
2
STYLE
5
3
100
AcDbSymbolTable
70
1
0
STYLE
5
11
100
AcDbSymbolTableRecord
100
AcDbTextStyleTableRecord
2
STANDARD
70
0
0
ENDTAB
0
TABLE
2
VIEW
5
6
100
AcDbSymbolTable
70
0
0
ENDTAB
0
TABLE
2
UCS
5
7
100
AcDbSymbolTable
70
0
0
ENDTAB
0
TABLE
2
APPID
5
9
100
AcDbSymbolTable
70
2
0
APPID
5
12
100
AcDbSymbolTableRecord
100
AcDbRegAppTableRecord
2
ACAD
70
0
0
ENDTAB
0
TABLE
2
DIMSTYLE
5
A
100
AcDbSymbolTable
70
1
0
ENDTAB
0
TABLE
2
BLOCK_RECORD
5
1
100
AcDbSymbolTable
70
1
0
BLOCK_RECORD
5
1F
100
AcDbSymbolTableRecord
100
AcDbBlockTableRecord
2
*MODEL_SPACE
0
BLOCK_RECORD
5
1B
100
AcDbSymbolTableRecord
100
AcDbBlockTableRecord
2
*PAPER_SPACE
0
ENDTAB
0
ENDSEC
0
SECTION
2
BLOCKS
0
BLOCK
5
20
100
AcDbEntity
100
AcDbBlockBegin
2
*MODEL_SPACE
0
ENDBLK
5
21
100
AcDbEntity
100
AcDbBlockEnd
0
BLOCK
5
1C
100
AcDbEntity
100
AcDbBlockBegin
2
*PAPER_SPACE
0
ENDBLK
5
1D
100
AcDbEntity
100
AcDbBlockEnd
0
ENDSEC
0
SECTION
2
ENTITIES
0
LWPOLYLINE
5
100
100
AcDbEntity
8
0
100
AcDbPolyline
90
6
70
1
43
0.0
10
0.14722329058468239
20
-0.25499986308245531
10
-0.14722534670202703
20
-0.25499986308245515
10
-0.29444966534538153
20
1.3691754484335301e-07
10
-0.14722534670202672
20
0.25500013691754481
10
0.14722329058468259
20
0.25500013691754481
10
0.29444760922803709
20
1.3691754471222431e-07
0
LWPOLYLINE
5
101
100
AcDbEntity
8
0
100
AcDbPolyline
90
140
70
1
43
0.0
10
-0.1270773723392048
20
-0.82656887179690675
42
0.44371902657827128
10
-0.1128369901037021
20
-0.84724354808517022
42
0.010090430657294161
10
-0.07855932891302192
20
-0.85110644246865852
42
0.44440454784414801
10
-0.060037596219726944
20
-0.83412293612954569
42
-0.41646683244321919
10
-1.8151166402153579e-14
20
-0.77362181504671013
42
-0.41646443129688959
10
0.060037604722694267
20
-0.83412220783569313
42
0.44371902657827111
10
0.078521499121132807
20
-0.85110974366950598
42
0.010090430657290031
10
0.11279932264621804
20
-0.84724829004379254
42
0.444404547844304
10
0.12707749113845873
20
-0.82656912240967173
42
-0.41646683244322258
10
0.172147053504598
20
-0.75422526876442164
42
-0.41646443129688721
10
0.244141994037438
20
-0.79984916651696703
42
0.44371902657826767
10
0.26594254095165332
20
-0.81229773591584964
42
0.010090430657290031
10
0.29850169360787898
20
-0.80090556368975396
42
0.44440454784430716
10
0.30782033091041555
20
-0.77756767457448372
42
-0.41646683244322069
10
0.33566188337184449
20
-0.69700871127021713
42
-0.41646443129688715
10
0.41600403277180442
20
-0.72546834124420623
42
0.44371902657827123
10
0.44002806174836162
20
-0.73275372095779967
42
0.010090430657289344
10
0.46923589166636287
20
-0.71440208121630699
42
0.44440454784430689
10
0.4731277223936059
20
-0.68957572983066517
42
-0.41646683244322097
10
0.48234517325370935
20
-0.60484121967239324
42
-0.41646443129688915
10
0.56700584067027571
20
-0.61470949718386503
42
0.44371902657827023
10
0.59204868658068166
20
-0.6164663678522333
42
0.010090430657290031
10
0.61644059120709382
20
-0.59207548844175628
42
0.44440454784430566
10
0.61471046271550889
20
-0.56700557171003396
42
-0.41646683244322102
10
0.60484161049943874
20
-0.48234445685759381
42
-0.4164644312968887
10
0.68957555655618452
20
-0.47312654526578446
42
0.44371902657826967
10
0.71438146653667323
20
-0.46926681005756266
42
0.010090430657290031
10
0.73273433392180398
20
-0.44005975151918497
42
0.44440454784430716
10
0.7254690020783473
20
-0.41600337974916679
42
-0.41646683244322097
10
0.69700871224495509
20
-0.33566092201528835
42
-0.41646443129688776
10
0.77756702306844927
20
-0.30781904589805836
42
0.44371902657826856
10
0.80089212521213959
20
-0.29853624805343737
42
0.010090430657287968
10
0.81228566595039853
20
-0.26597757426032886
42
0.44440454784430911
10
0.79984944483108456
20
-0.24414103438322388
42
-0.41646683244322175
10
0.75422483515243788
20
-0.17214594007957124
42
-0.41646443129688965
10
0.82656798065577941
20
-0.12707620736298772
42
0.44371902657827078
10
0.84724265694404277
20
-0.11283582512748501
42
0.010090430657289344
10
0.85110555132753041
20
-0.078558163936813946
42
0.44440454784431005
10
0.83412204498841824
20
-0.060036431243509686
42
-0.41646683244322058
10
0.77362092390558279
20
1.1649761989466763e-06
42
-0.41646443129688754
10
0.83412131669456602
20
0.060038769698911129
42
0.44371902657826812
10
0.85110885252837853
20
0.078522664097349676
42
0.010090430657290031
10
0.84724739890266521
20
0.11280048762243489
42
0.44440454784431099
10
0.82656823126854428
20
0.12707865611467542
42
-0.41646683244321986
10
0.7542243776232942
20
0.17214821848081488
42
-0.41646443129688726
10
0.79984827537583958
20
0.24414315901365488
42
0.44371902657826678
10
0.81229684477472197
20
0.26594370592787009
42
0.010090430657290031
10
0.80090467254862663
20
0.29850285858409575
42
0.44440454784430966
10
0.77756678343335628
20
0.30782149588663243
42
-0.41646683244321986
10
0.69700782012908968
20
0.33566304834806138
42
-0.41646443129688793
10
0.72546745010307878
20
0.41600519774802136
42
0.44371902657826989
10
0.73275282981667234
20
0.4400292267245785
42
0.010090430657290031
10
0.71440119007517966
20
0.46923705664258014
42
0.444404547844303
10
0.68957483868953773
20
0.47312888736982289
42
-0.4164668324432203
10
0.6048403285312659
20
0.48234633822992634
42
-0.41646443129688859
10
0.61470860604273769
20
0.56700700564649276
42
0.44371902657827139
10
0.61646547671110608
20
0.59204985155689849
42
0.010090430657290031
10
0.59207459730062872
20
0.61644175618331065
42
0.44440454784430561
10
0.56700468056890663
20
0.61471162769172583
42
-0.41646683244322102
10
0.48234356571646642
20
0.60484277547565579
42
-0.41646443129688837
10
0.47312565412465718
20
0.68957672153240146
42
0.44371902657826878
10
0.46926591891643538
20
0.71438263151289016
42
0.010090430657290031
10
0.44005886037805769
20
0.73273549889802114
42
0.444404547844305
10
0.41600248860803957
20
0.72547016705456435
42
-0.4164668324432208
10
0.33566003087416102
20
0.69700987722117214
42
-0.41646443129688809
10
0.30781815475693097
20
0.77756818804466632
42
0.44371902657826873
10
0.29853535691230998
20
0.80089329018835675
42
0.010090430657289344
10
0.26597668311920147
20
0.81228683092661602
42
0.44440454784430794
10
0.24414014324209643
20
0.79985060980730172
42
-0.41646683244322291
10
0.17214504893844373
20
0.75422600012865482
42
-0.41646443129688882
10
0.12707531622186058
20
0.82656914563199624
42
0.44371902657827039
10
0.11283493398635791
20
0.84724382192025993
42
0.010090430657290031
10
0.078557272795686833
20
0.85110671630374757
42
0.44440454784431005
10
0.060035540102382788
20
0.83412320996463507
42
-0.41646683244322141
10
-2.0561173261046048e-06
20
0.77362208888179962
42
-0.41646443129688859
10
-0.060039660840038499
20
0.83412248167078284
42
0.44371902657826812
10
-0.078523555238477039
20
0.85111001750459536
42
0.010090430657290031
10
-0.11280137876356228
20
0.84724856387888203
42
0.4444045478443106
10
-0.12707954725580276
20
0.82656939624476111
42
-0.41646683244321886
10
-0.17214910962194224
20
0.75422554259951102
42
-0.41646443129688959
10
-0.24414405015478227
20
0.79984944035205674
42
0.44371902657826828
10
-0.26594459706899759
20
0.81229800975093891
42
0.010090430657290031
10
-0.29850374972522314
20
0.80090583752484357
42
0.44440454784430827
10
-0.30782238702775983
20
0.77756794840957333
42
-0.41646683244322119
10
-0.33566393948918866
20
0.69700898510530651
42
-0.41646443129688748
10
-0.41600608888914858
20
0.72546861507929572
42
0.44371902657827417
10
-0.44003011786570589
20
0.73275399479288927
42
0.010090430657290031
10
-0.46923794778370731
20
0.71440235505139671
42
0.44440454784430722
10
-0.47312977851094995
20
0.68957600366575456
42
-0.41646683244321997
10
-0.48234722937105362
20
0.60484149350748295
42
-0.41646443129688704
10
-0.56700789678761998
20
0.61470977101895452
42
0.44371902657827139
10
-0.59205074269802593
20
0.6164666416873229
42
0.010090430657290031
10
-0.6164426473244381
20
0.59207576227684577
42
0.44440454784430555
10
-0.61471251883285316
20
0.56700584554512345
42
-0.41646683244322108
10
-0.6048436666167829
20
0.48234473069268319
42
-0.41646443129688848
10
-0.68957761267352879
20
0.47312681910087406
42
0.44371902657826762
10
-0.7143835226540175
20
0.46926708389265237
42
0.010090430657290031
10
-0.73273639003914848
20
0.44006002535427469
42
0.44440454784430478
10
-0.72547105819569147
20
0.41600365358425645
42
-0.41646683244322058
10
-0.69701076836229969
20
0.33566119585037818
42
-0.41646443129688732
10
-0.77756907918579365
20
0.30781931973314808
42
0.44371902657827006
10
-0.80089418132948442
20
0.2985365218885272
42
0.010090430657289344
10
-0.81228772206774336
20
0.26597784809541858
42
0.44440454784430761
10
-0.79985150094842905
20
0.24414130821831337
42
-0.41646683244322297
10
-0.75422689126978237
20
0.17214621391466095
42
-0.41646443129688859
10
-0.82657003677312368
20
0.12707648119807755
42
0.44371902657827061
10
-0.84724471306138727
20
0.1128360989625749
42
0.010090430657290031
10
-0.85110760744487501
20
0.078558437771903841
42
0.44440454784431005
10
-0.83412410110576252
20
0.060036705078599699
42
-0.41646683244322225
10
-0.77362298002292706
20
-8.9114110909076654e-07
42
-0.41646443129688909
10
-0.83412337281191018
20
-0.060038495863821519
42
0.44371902657826745
10
-0.85111090864572281
20
-0.078522390262260058
42
0.010090430657290031
10
-0.84724945502000948
20
-0.11280021378734531
42
0.44440454784430866
10
-0.82657028738588856
20
-0.12707838227958579
42
-0.41646683244321936
10
-0.75422643374063858
20
-0.17214794464572533
42
-0.41646443129688687
10
-0.79985033149318385
20
-0.24414288517856514
42
0.44371902657827
10
-0.81229890089206658
20
-0.26594343209278049
42
0.010090430657290031
10
-0.80090672866597101
20
-0.29850258474900609
42
0.44440454784430872
10
-0.77756883955070066
20
-0.30782122205154272
42
-0.41646683244321964
10
-0.69700987624643385
20
-0.33566277451297155
42
-0.41646443129689004
10
-0.72546950622042305
20
-0.4160049239129317
42
0.44371902657827417
10
-0.73275488593401672
20
-0.44002895288948896
42
0.010090430657290031
10
-0.71440324619252416
20
-0.46923678280749043
42
0.44440454784430805
10
-0.689576894806882
20
-0.47312861353473296
42
-0.41646683244321936
10
-0.60484238464861029
20
-0.48234606439483685
42
-0.41646443129688832
10
-0.61471066216008208
20
-0.56700673181140315
42
0.44371902657827045
10
-0.61646753282845035
20
-0.59204957772180888
42
0.010090430657290031
10
-0.59207665341797344
20
-0.61644148234822105
42
0.44440454784430772
10
-0.56700673668625101
20
-0.61471135385663611
42
-0.41646683244322108
10
-0.48234562183381086
20
-0.60484250164056608
42
-0.41646443129688748
10
-0.47312771024200162
20
-0.68957644769731163
42
0.44371902657827089
10
-0.46926797503377982
20
-0.71438235767780056
42
0.010090430657289344
10
-0.44006091649540224
20
-0.73273522506293154
42
0.44440454784430555
10
-0.41600454472538401
20
-0.72546989321947464
42
-0.4164668324432208
10
-0.33566208699150546
20
-0.69700960338608231
42
-0.41646443129688848
10
-0.30782021087427541
20
-0.7775679142095766
42
0.44371902657826978
10
-0.29853741302965436
20
-0.80089301635326704
42
0.010090430657287968
10
-0.26597873923654591
20
-0.81228655709152597
42
0.44440454784431288
10
-0.24414219935944087
20
-0.799850335972212
42
-0.41646683244322069
10
-0.17214710505578826
20
-0.75422572629356532
42
-0.41646443129689015
0
ENDSEC
0
SECTION
2
OBJECTS
0
DICTIONARY
5
C
100
AcDbDictionary
3
ACAD_GROUP
350
D
3
ACAD_MLINESTYLE
350
17
0
DICTIONARY
5
D
100
AcDbDictionary
0
DICTIONARY
5
1A
330
C
100
AcDbDictionary
0
DICTIONARY
5
17
100
AcDbDictionary
0
ENDSEC
0
EOF
