0
SECTION
2
HEADER
9
$INSUNITS
70
1
9
$ACADVER
1
AC1014
9
$HANDSEED
5
FFFF
0
ENDSEC
0
SECTION
2
TABLES
0
TABLE
2
VPORT
5
8
100
AcDbSymbolTable
0
ENDTAB
0
TABLE
2
LTYPE
5
5
100
AcDbSymbolTable
0
LTYPE
5
14
100
AcDbSymbolTableRecord
100
AcDbLinetypeTableRecord
2
BYBLOCK
70
0
0
LTYPE
5
15
100
AcDbSymbolTableRecord
100
AcDbLinetypeTableRecord
2
BYLAYER
70
0
0
ENDTAB
0
TABLE
2
LAYER
5
2
100
AcDbSymbolTable
70
2
0
LAYER
5
50
100
AcDbSymbolTableRecord
100
AcDbLayerTableRecord
2
0
70
0
6
CONTINUOUS
0
ENDTAB
0
TABLE
2
STYLE
5
3
100
AcDbSymbolTable
70
1
0
STYLE
5
11
100
AcDbSymbolTableRecord
100
AcDbTextStyleTableRecord
2
STANDARD
70
0
0
ENDTAB
0
TABLE
2
VIEW
5
6
100
AcDbSymbolTable
70
0
0
ENDTAB
0
TABLE
2
UCS
5
7
100
AcDbSymbolTable
70
0
0
ENDTAB
0
TABLE
2
APPID
5
9
100
AcDbSymbolTable
70
2
0
APPID
5
12
100
AcDbSymbolTableRecord
100
AcDbRegAppTableRecord
2
ACAD
70
0
0
ENDTAB
0
TABLE
2
DIMSTYLE
5
A
100
AcDbSymbolTable
70
1
0
ENDTAB
0
TABLE
2
BLOCK_RECORD
5
1
100
AcDbSymbolTable
70
1
0
BLOCK_RECORD
5
1F
100
AcDbSymbolTableRecord
100
AcDbBlockTableRecord
2
*MODEL_SPACE
0
BLOCK_RECORD
5
1B
100
AcDbSymbolTableRecord
100
AcDbBlockTableRecord
2
*PAPER_SPACE
0
ENDTAB
0
ENDSEC
0
SECTION
2
BLOCKS
0
BLOCK
5
20
100
AcDbEntity
100
AcDbBlockBegin
2
*MODEL_SPACE
0
ENDBLK
5
21
100
AcDbEntity
100
AcDbBlockEnd
0
BLOCK
5
1C
100
AcDbEntity
100
AcDbBlockBegin
2
*PAPER_SPACE
0
ENDBLK
5
1D
100
AcDbEntity
100
AcDbBlockEnd
0
ENDSEC
0
SECTION
2
ENTITIES
0
CIRCLE
5
100
100
AcDbEntity
8
0
100
AcDbCircle
10
-1.0280586721708268e-06
20
1.3691754475593389e-07
30
0
40
0.43749999999999989
210
0
220
-0
230
1
0
ARC
5
101
100
AcDbEntity
8
0
100
AcDbCircle
10
-0.11060210002174162
20
-0.8304625815005926
30
0
40
0.016929133858267709
210
0
220
0
230
1
100
AcDbArc
50
166.70289724477993
51
262.41398550709715
0
ARC
5
102
100
AcDbEntity
8
0
100
AcDbCircle
10
-1.0280586721708268e-06
20
1.3691754475593389e-07
30
0
40
0.85472440944880423
210
0
220
0
230
1
100
AcDbArc
50
262.4139855070967
51
264.72646338673098
0
ARC
5
103
100
AcDbEntity
8
0
100
AcDbCircle
10
-0.076965655657588325
20
-0.83425306489231188
30
0
40
0.016928559601336147
210
0
220
0
230
1
100
AcDbArc
50
-95.401887028288797
51
0.44043335688864832
0
ARC
5
104
100
AcDbEntity
8
0
100
AcDbCircle
10
1.2020131172122756e-16
20
-0.83366141732283483
30
0
40
0.060039370078740273
210
0
220
0
230
1
100
AcDbArc
50
90.000000000000114
51
180.44043333863186
0
ARC
5
105
100
AcDbEntity
8
0
100
AcDbCircle
10
4.6914426985622097e-09
20
-0.83366118512544996
30
0
40
0.060039370078739988
210
0
220
0
230
1
100
AcDbArc
50
-0.4399598980760136
51
90.000000000000185
0
ARC
5
106
100
AcDbEntity
8
0
100
AcDbCircle
10
0.076966239485604562
20
-0.83425220112448328
30
0
40
0.016929133858267682
210
0
220
0
230
1
100
AcDbArc
50
179.56004010192237
51
275.27112836423976
0
ARC
5
107
100
AcDbEntity
8
0
100
AcDbCircle
10
-1.0280586721708268e-06
20
1.3691754475593389e-07
30
0
40
0.85472440944880412
210
-0
220
0
230
1
100
AcDbArc
50
275.27112836423959
51
277.58360624387319
0
ARC
5
108
100
AcDbEntity
8
0
100
AcDbCircle
10
0.11060280986723986
20
-0.83046283616885097
30
0
40
0.016928559601336591
210
-0
220
0
230
1
100
AcDbArc
50
-82.544744171176831
51
13.297576214030428
0
ARC
5
109
100
AcDbEntity
8
0
100
AcDbCircle
10
0.18550712187746446
20
-0.81275955285970636
30
0
40
0.060039370078739933
210
0
220
0
230
1
100
AcDbArc
50
102.8571428571428
51
193.29757619577578
0
ARC
5
110
100
AcDbEntity
8
0
100
AcDbCircle
10
0.18550707478250392
20
-0.81275932544005125
30
0
40
0.060039370078740238
210
0
220
-0
230
1
100
AcDbArc
50
12.417182959066364
51
102.85714285714273
0
ARC
5
111
100
AcDbEntity
8
0
100
AcDbCircle
10
0.26067511881096039
20
-0.79620892498455664
30
0
40
0.016929133858267734
210
0
220
0
230
1
100
AcDbArc
50
192.41718295906551
51
288.12827122138265
0
ARC
5
112
100
AcDbEntity
8
0
100
AcDbCircle
10
-1.0280586721708268e-06
20
1.3691754475593389e-07
30
0
40
0.85472440944880423
210
-0
220
0
230
1
100
AcDbArc
50
288.12827122138242
51
290.44074910101608
0
ARC
5
113
100
AcDbEntity
8
0
100
AcDbCircle
10
0.29262513711705646
20
-0.78502972626345835
30
0
40
0.016928559601336247
210
-0
220
0
230
1
100
AcDbArc
50
-69.687601314033657
51
26.154719071173741
0
ARC
5
114
100
AcDbEntity
8
0
100
AcDbCircle
10
0.3617120905025567
20
-0.7511025237622404
30
0
40
0.060039370078740127
210
0
220
0
230
1
100
AcDbArc
50
115.71428571428575
51
206.15471905291838
0
ARC
5
115
100
AcDbEntity
8
0
100
AcDbCircle
10
0.36171199398273102
20
-0.75110231252408532
30
0
40
0.060039370078740099
210
0
220
-0
230
1
100
AcDbArc
50
25.274325816209313
51
115.71428571428564
0
ARC
5
116
100
AcDbEntity
8
0
100
AcDbCircle
10
0.43131260764347773
20
-0.7182404018013554
30
0
40
0.01692913385826773
210
0
220
0
230
1
100
AcDbArc
50
205.27432581620806
51
300.98541407852559
0
ARC
5
117
100
AcDbEntity
8
0
100
AcDbCircle
10
-1.0280586721708268e-06
20
1.3691754475593389e-07
30
0
40
0.85472440944880412
210
-0
220
0
230
1
100
AcDbArc
50
300.98541407852525
51
303.29789195815891
0
ARC
5
118
100
AcDbEntity
8
0
100
AcDbCircle
10
0.45997396654450889
20
-0.70023194101893538
30
0
40
0.016928559601336327
210
-0
220
0
230
1
100
AcDbArc
50
-56.830458456891165
51
39.011861928316428
0
ARC
5
119
100
AcDbEntity
8
0
100
AcDbCircle
10
0.51977925298054162
20
-0.65178207092671514
30
0
40
0.060039370078740183
210
0
220
0
230
1
100
AcDbArc
50
128.57142857142864
51
219.01186191006127
0
ARC
5
120
100
AcDbEntity
8
0
100
AcDbCircle
10
0.51977911187575776
20
-0.65178188646242308
30
0
40
0.060039370078739975
210
0
220
-0
230
1
100
AcDbArc
50
38.131468673351854
51
128.57142857142875
0
ARC
5
121
100
AcDbEntity
8
0
100
AcDbCircle
10
0.58032222977299253
20
-0.60425629889548482
30
0
40
0.0169291338582678
210
0
220
0
230
1
100
AcDbArc
50
218.13146867335101
51
313.84255693566809
0
ARC
5
122
100
AcDbEntity
8
0
100
AcDbCircle
10
-1.0280586721708268e-06
20
1.3691754475593389e-07
30
0
40
0.85472440944880412
210
-0
220
0
230
1
100
AcDbArc
50
313.84255693566814
51
316.1550348153018
0
ARC
5
123
100
AcDbEntity
8
0
100
AcDbCircle
10
0.60425772905424902
20
-0.58032159547215734
30
0
40
0.016928559601336542
210
-0
220
0
230
1
100
AcDbArc
50
-43.973315599747849
51
51.869004785459545
0
ARC
5
124
100
AcDbEntity
8
0
100
AcDbCircle
10
0.65178246175378329
20
-0.51977853658439754
30
0
40
0.060039370078740127
210
0
220
0
230
1
100
AcDbArc
50
141.42857142857142
51
231.86900476720416
0
ARC
5
125
100
AcDbEntity
8
0
100
AcDbCircle
10
0.65178228313962472
20
-0.51977838814377886
30
0
40
0.060039370078740127
210
0
220
-0
230
1
100
AcDbArc
50
50.988611530494886
51
141.42857142857144
0
ARC
5
126
100
AcDbEntity
8
0
100
AcDbCircle
10
0.70023202053593592
20
-0.45997225514280909
30
0
40
0.016929133858267709
210
0
220
0
230
1
100
AcDbArc
50
230.98861153049435
51
326.69969979281115
0
ARC
5
127
100
AcDbEntity
8
0
100
AcDbCircle
10
-1.0280586721708268e-06
20
1.3691754475593389e-07
30
0
40
0.85472440944880412
210
-0
220
0
230
1
100
AcDbArc
50
326.69969979281103
51
329.01217767244469
0
ARC
5
128
100
AcDbEntity
8
0
100
AcDbCircle
10
0.71824143431751464
20
-0.43131149505083732
30
0
40
0.016928559601336383
210
-0
220
0
230
1
100
AcDbArc
50
-31.116172742605553
51
64.726147642602029
0
ARC
5
129
100
AcDbEntity
8
0
100
AcDbCircle
10
0.75110252473699446
20
-0.36171112914596798
30
0
40
0.060039370078740106
210
0
220
0
230
1
100
AcDbArc
50
154.28571428571433
51
244.72614762434702
0
ARC
5
130
100
AcDbEntity
8
0
100
AcDbCircle
10
0.7511023175699203
20
-0.3617110241724551
30
0
40
0.060039370078740162
210
0
220
-0
230
1
100
AcDbArc
50
63.845754387637669
51
154.28571428571425
0
ARC
5
131
100
AcDbEntity
8
0
100
AcDbCircle
10
0.78502920232377227
20
-0.29262327497478596
30
0
40
0.016929133858267657
210
0
220
0
230
1
100
AcDbArc
50
243.84575438763724
51
339.55684264995421
0
ARC
5
132
100
AcDbEntity
8
0
100
AcDbCircle
10
-1.0280586721708268e-06
20
1.3691754475593389e-07
30
0
40
0.85472440944880368
210
-0
220
0
230
1
100
AcDbArc
50
339.55684264995386
51
341.86932052958753
0
ARC
5
133
100
AcDbEntity
8
0
100
AcDbCircle
10
0.79620946339790222
20
-0.26067362840209318
30
0
40
0.016928559601335994
210
-0
220
0
230
1
100
AcDbArc
50
-18.259029885462898
51
77.583290499745431
0
ARC
5
134
100
AcDbEntity
8
0
100
AcDbCircle
10
0.81275911924773081
20
-0.18550600845240239
30
0
40
0.060039370078740127
210
0
220
0
230
1
100
AcDbArc
50
167.14285714285708
51
257.58329048149
0
ARC
5
135
100
AcDbEntity
8
0
100
AcDbCircle
10
0.81275889391596401
20
-0.18550595220980498
30
0
40
0.06003937007874012
210
0
220
-0
230
1
100
AcDbArc
50
76.702897244780615
51
167.14285714285714
0
ARC
5
136
100
AcDbEntity
8
0
100
AcDbCircle
10
0.83046169035946538
20
-0.11060093504552453
30
0
40
0.016929133858267734
210
0
220
0
230
1
100
AcDbArc
50
256.70289724477959
51
352.41398550709704
0
ARC
5
137
100
AcDbEntity
8
0
100
AcDbCircle
10
-1.0280586721708268e-06
20
1.3691754475593389e-07
30
0
40
0.85472440944880412
210
-0
220
0
230
1
100
AcDbArc
50
352.41398550709675
51
354.72646338673036
0
ARC
5
138
100
AcDbEntity
8
0
100
AcDbCircle
10
0.83425217375118454
20
-0.076964490681371234
30
0
40
0.016928559601336133
210
-0
220
0
230
1
100
AcDbArc
50
-5.4018870283197362
51
90.440433356888519
0
ARC
5
139
100
AcDbEntity
8
0
100
AcDbCircle
10
0.83366052618170738
20
1.1649762171125265e-06
30
0
40
0.060039370078740009
210
0
220
0
230
1
100
AcDbArc
50
180
51
270.44043333863249
0
ARC
5
140
100
AcDbEntity
8
0
100
AcDbCircle
10
0.83366029398432284
20
1.1696676593712612e-06
30
0
40
0.060039370078740176
210
0
220
-0
230
1
100
AcDbArc
50
89.560040101923306
51
180
0
ARC
5
141
100
AcDbEntity
8
0
100
AcDbCircle
10
0.83425130998335595
20
0.076967404461821445
30
0
40
0.016929133858267699
210
0
220
0
230
1
100
AcDbArc
50
-90.439959898076879
51
5.2711283642397877
0
ARC
5
142
100
AcDbEntity
8
0
100
AcDbCircle
10
-1.0280586721708268e-06
20
1.3691754475593389e-07
30
0
40
0.8547244094488039
210
0
220
-0
230
1
100
AcDbArc
50
5.2711283642395808
51
7.5836062438731844
0
ARC
5
143
100
AcDbEntity
8
0
100
AcDbCircle
10
0.83046194502772386
20
0.11060397484345673
30
0
40
0.016928559601336417
210
0
220
-0
230
1
100
AcDbArc
50
7.4552558288231525
51
103.29757621403172
0
ARC
5
144
100
AcDbEntity
8
0
100
AcDbCircle
10
0.81275866171857925
20
0.18550828685368154
30
0
40
0.060039370078740224
210
0
220
0
230
1
100
AcDbArc
50
192.85714285714292
51
283.29757619577538
0
ARC
5
145
100
AcDbEntity
8
0
100
AcDbCircle
10
0.8127584342989238
20
0.18550823975872083
30
0
40
0.060039370078740238
210
0
220
0
230
1
100
AcDbArc
50
102.41718295906638
51
192.85714285714272
0
ARC
5
146
100
AcDbEntity
8
0
100
AcDbCircle
10
0.79620803384342909
20
0.26067628378717728
30
0
40
0.016929133858267692
210
-0
220
0
230
1
100
AcDbArc
50
-77.582817040934074
51
18.12827122138216
0
ARC
5
147
100
AcDbEntity
8
0
100
AcDbCircle
10
-1.0280586721708268e-06
20
1.3691754475593389e-07
30
0
40
0.8547244094488039
210
0
220
-0
230
1
100
AcDbArc
50
18.12827122138243
51
20.440749101016085
0
ARC
5
148
100
AcDbEntity
8
0
100
AcDbCircle
10
0.7850288351223309
20
0.29262630209327334
30
0
40
0.016928559601336379
210
0
220
-0
230
1
100
AcDbArc
50
20.312398685965825
51
116.15471907117384
0
ARC
5
149
100
AcDbEntity
8
0
100
AcDbCircle
10
0.75110163262111296
20
0.3617132554787737
30
0
40
0.060039370078740273
210
0
220
0
230
1
100
AcDbArc
50
205.71428571428584
51
296.15471905291827
0
ARC
5
150
100
AcDbEntity
8
0
100
AcDbCircle
10
0.75110142138295777
20
0.36171315895894796
30
0
40
0.060039370078740127
210
0
220
0
230
1
100
AcDbArc
50
115.27432581620921
51
205.71428571428575
0
ARC
5
151
100
AcDbEntity
8
0
100
AcDbCircle
10
0.71823951066022795
20
0.43131377261969472
30
0
40
0.01692913385826773
210
-0
220
0
230
1
100
AcDbArc
50
-64.72567418379198
51
30.985414078525054
0
ARC
5
152
100
AcDbEntity
8
0
100
AcDbCircle
10
-1.0280586721708268e-06
20
1.3691754475593389e-07
30
0
40
0.85472440944880412
210
0
220
-0
230
1
100
AcDbArc
50
30.985414078525295
51
33.297891958158964
0
ARC
5
153
100
AcDbEntity
8
0
100
AcDbCircle
10
0.70023104987780804
20
0.45997513152072589
30
0
40
0.016928559601336469
210
0
220
-0
230
1
100
AcDbArc
50
33.169541543109624
51
129.01186192831645
0
ARC
5
154
100
AcDbEntity
8
0
100
AcDbCircle
10
0.65178117978558781
20
0.51978041795675867
30
0
40
0.060039370078740238
210
0
220
0
230
1
100
AcDbArc
50
218.57142857142861
51
309.01186191006127
0
ARC
5
155
100
AcDbEntity
8
0
100
AcDbCircle
10
0.65178099532129585
20
0.51978027685197481
30
0
40
0.06003937007874003
210
0
220
0
230
1
100
AcDbArc
50
128.13146867335195
51
218.57142857142881
0
ARC
5
156
100
AcDbEntity
8
0
100
AcDbCircle
10
0.60425540775435749
20
0.58032339474920946
30
0
40
0.016929133858267744
210
-0
220
0
230
1
100
AcDbArc
50
-51.868531326648771
51
43.842556935668384
0
ARC
5
157
100
AcDbEntity
8
0
100
AcDbCircle
10
-1.0280586721708268e-06
20
1.3691754475593389e-07
30
0
40
0.85472440944880423
210
0
220
-0
230
1
100
AcDbArc
50
43.842556935668163
51
46.155034815301811
0
ARC
5
158
100
AcDbEntity
8
0
100
AcDbCircle
10
0.58032070433103
20
0.60425889403046595
30
0
40
0.016928559601336417
210
0
220
-0
230
1
100
AcDbArc
50
46.026684400252407
51
141.86900478545954
0
ARC
5
159
100
AcDbEntity
8
0
100
AcDbCircle
10
0.51977764544327021
20
0.65178362673000034
30
0
40
0.060039370078740127
210
0
220
0
230
1
100
AcDbArc
50
231.42857142857142
51
321.86900476720405
0
ARC
5
160
100
AcDbEntity
8
0
100
AcDbCircle
10
0.51977749700265152
20
0.65178344811584166
30
0
40
0.060039370078740127
210
0
220
0
230
1
100
AcDbArc
50
140.98861153049484
51
231.42857142857142
0
ARC
5
161
100
AcDbEntity
8
0
100
AcDbCircle
10
0.45997136400168182
20
0.70023318551215286
30
0
40
0.016929133858267709
210
-0
220
0
230
1
100
AcDbArc
50
-39.011388469505604
51
56.699699792811074
0
ARC
5
162
100
AcDbEntity
8
0
100
AcDbCircle
10
-1.0280586721708268e-06
20
1.3691754475593389e-07
30
0
40
0.85472440944880412
210
0
220
-0
230
1
100
AcDbArc
50
56.69969979281101
51
59.012177672444665
0
ARC
5
163
100
AcDbEntity
8
0
100
AcDbCircle
10
0.4313106039097101
20
0.71824259929373169
30
0
40
0.016928559601336414
210
0
220
-0
230
1
100
AcDbArc
50
58.883827257394785
51
154.72614764260237
0
ARC
5
164
100
AcDbEntity
8
0
100
AcDbCircle
10
0.3617102380048407
20
0.75110368971321151
30
0
40
0.060039370078740203
210
0
220
0
230
1
100
AcDbArc
50
244.28571428571428
51
334.72614762434694
0
ARC
5
165
100
AcDbEntity
8
0
100
AcDbCircle
10
0.36171013303132771
20
0.75110348254613735
30
0
40
0.060039370078740162
210
0
220
0
230
1
100
AcDbArc
50
153.84575438763767
51
244.28571428571416
0
ARC
5
166
100
AcDbEntity
8
0
100
AcDbCircle
10
0.29262238383365852
20
0.78503036729998932
30
0
40
0.016929133858267695
210
-0
220
0
230
1
100
AcDbArc
50
-26.154245612362644
51
69.556842649954163
0
ARC
5
167
100
AcDbEntity
8
0
100
AcDbCircle
10
-1.0280586721708268e-06
20
1.3691754475593389e-07
30
0
40
0.85472440944880412
210
0
220
-0
230
1
100
AcDbArc
50
69.556842649953879
51
71.869320529587526
0
ARC
5
168
100
AcDbEntity
8
0
100
AcDbCircle
10
0.26067273726096574
20
0.79621062837411938
30
0
40
0.016928559601336341
210
0
220
-0
230
1
100
AcDbArc
50
71.740970114537276
51
167.58329049974543
0
ARC
5
169
100
AcDbEntity
8
0
100
AcDbCircle
10
0.185505117311275
20
0.81276028422394786
30
0
40
0.060039370078740051
210
0
220
0
230
1
100
AcDbArc
50
257.14285714285705
51
347.58329048149005
0
ARC
5
170
100
AcDbEntity
8
0
100
AcDbCircle
10
0.18550506106867767
20
0.81276005889218073
30
0
40
0.060039370078739954
210
0
220
0
230
1
100
AcDbArc
50
166.70289724478053
51
257.14285714285722
0
ARC
5
171
100
AcDbEntity
8
0
100
AcDbCircle
10
0.11060004390439739
20
0.83046285533568209
30
0
40
0.016929133858267734
210
-0
220
0
230
1
100
AcDbArc
50
-13.297102755220092
51
82.413985507097024
0
ARC
5
172
100
AcDbEntity
8
0
100
AcDbCircle
10
-1.0280586721708268e-06
20
1.3691754475593389e-07
30
0
40
0.85472440944880423
210
0
220
-0
230
1
100
AcDbArc
50
82.413985507096726
51
84.726463386730359
0
ARC
5
173
100
AcDbEntity
8
0
100
AcDbCircle
10
0.076963599540244079
20
0.83425333872740137
30
0
40
0.016928559601336487
210
0
220
-0
230
1
100
AcDbArc
50
84.598112971680223
51
180.44043335688863
0
ARC
5
174
100
AcDbEntity
8
0
100
AcDbCircle
10
-2.0561173441012513e-06
20
0.8336616911579241
30
0
40
0.060039370078740099
210
0
220
0
230
1
100
AcDbArc
50
-90.000000000000142
51
0.44043333863185674
0
ARC
5
175
100
AcDbEntity
8
0
100
AcDbCircle
10
-2.0608087867424444e-06
20
0.83366145896053967
30
0
40
0.060039370078740176
210
0
220
0
230
1
100
AcDbArc
50
179.56004010192316
51
270
0
ARC
5
176
100
AcDbEntity
8
0
100
AcDbCircle
10
-0.076968295602948808
20
0.83425247495957278
30
0
40
0.016929133858267699
210
-0
220
0
230
1
100
AcDbArc
50
-0.43995989807682784
51
95.271128364239814
0
ARC
5
177
100
AcDbEntity
8
0
100
AcDbCircle
10
-1.0280586721708268e-06
20
1.3691754475593389e-07
30
0
40
0.85472440944880368
210
0
220
0
230
1
100
AcDbArc
50
95.271128364239601
51
97.583606243873234
0
ARC
5
178
100
AcDbEntity
8
0
100
AcDbCircle
10
-0.11060486598458409
20
0.83046311000394057
30
0
40
0.016928559601336417
210
0
220
0
230
1
100
AcDbArc
50
97.455255828823212
51
193.29757621403132
0
ARC
5
179
100
AcDbEntity
8
0
100
AcDbCircle
10
-0.18550917799480893
20
0.81275982669479629
30
0
40
0.060039370078740224
210
0
220
0
230
1
100
AcDbArc
50
-77.142857142857039
51
13.297576195775168
0
ARC
5
180
100
AcDbEntity
8
0
100
AcDbCircle
10
-0.1855091308998483
20
0.81275959927514063
30
0
40
0.060039370078740051
210
0
220
0
230
1
100
AcDbArc
50
192.41718295906605
51
282.85714285714295
0
ARC
5
181
100
AcDbEntity
8
0
100
AcDbCircle
10
-0.26067717492830467
20
0.79620919881964625
30
0
40
0.016929133858267692
210
0
220
-0
230
1
100
AcDbArc
50
12.417182959065888
51
108.12827122138235
0
ARC
5
182
100
AcDbEntity
8
0
100
AcDbCircle
10
-1.0280586721708268e-06
20
1.3691754475593389e-07
30
0
40
0.85472440944880412
210
0
220
0
230
1
100
AcDbArc
50
108.12827122138245
51
110.44074910101608
0
ARC
5
183
100
AcDbEntity
8
0
100
AcDbCircle
10
-0.29262719323440073
20
0.78503000009854795
30
0
40
0.016928559601336379
210
0
220
0
230
1
100
AcDbArc
50
110.31239868596596
51
206.15471907117393
0
ARC
5
184
100
AcDbEntity
8
0
100
AcDbCircle
10
-0.36171414661990092
20
0.7511027975973299
30
0
40
0.060039370078740127
210
0
220
0
230
1
100
AcDbArc
50
-64.285714285714278
51
26.154719052918431
0
ARC
5
185
100
AcDbEntity
8
0
100
AcDbCircle
10
-0.36171405010007512
20
0.75110258635917471
30
0
40
0.060039370078740127
210
0
220
0
230
1
100
AcDbArc
50
205.2743258162092
51
295.71428571428572
0
ARC
5
186
100
AcDbEntity
8
0
100
AcDbCircle
10
-0.43131466376082189
20
0.718240675636445
30
0
40
0.016929133858267692
210
0
220
-0
230
1
100
AcDbArc
50
25.27432581620775
51
120.98541407852541
0
ARC
5
187
100
AcDbEntity
8
0
100
AcDbCircle
10
-1.0280586721708268e-06
20
1.3691754475593389e-07
30
0
40
0.85472440944880412
210
0
220
0
230
1
100
AcDbArc
50
120.98541407852528
51
123.29789195815894
0
ARC
5
188
100
AcDbEntity
8
0
100
AcDbCircle
10
-0.45997602266185311
20
0.70023221485402498
30
0
40
0.016928559601336327
210
0
220
0
230
1
100
AcDbArc
50
123.16954154310883
51
219.01186192831696
0
ARC
5
189
100
AcDbEntity
8
0
100
AcDbCircle
10
-0.51978130909788578
20
0.65178234476180474
30
0
40
0.060039370078740183
210
0
220
0
230
1
100
AcDbArc
50
-51.428571428571374
51
39.011861910061157
0
ARC
5
190
100
AcDbEntity
8
0
100
AcDbCircle
10
-0.51978116799310203
20
0.65178216029751301
30
0
40
0.060039370078740238
210
0
220
0
230
1
100
AcDbArc
50
218.13146867335217
51
308.57142857142838
0
ARC
5
191
100
AcDbEntity
8
0
100
AcDbCircle
10
-0.5803242858903368
20
0.60425657273057432
30
0
40
0.016929133858267744
210
0
220
-0
230
1
100
AcDbArc
50
38.131468673351009
51
133.84255693566811
0
ARC
5
192
100
AcDbEntity
8
0
100
AcDbCircle
10
-1.0280586721708268e-06
20
1.3691754475593389e-07
30
0
40
0.85472440944880412
210
0
220
0
230
1
100
AcDbArc
50
133.84255693566817
51
136.1550348153018
0
ARC
5
193
100
AcDbEntity
8
0
100
AcDbCircle
10
-0.60425978517159329
20
0.58032186930724683
30
0
40
0.016928559601336601
210
0
220
0
230
1
100
AcDbArc
50
136.02668440025212
51
231.8690047854592
0
ARC
5
194
100
AcDbEntity
8
0
100
AcDbCircle
10
-0.65178451787112757
20
0.51977881041948704
30
0
40
0.060039370078740127
210
-0
220
0
230
1
100
AcDbArc
50
-38.57142857142852
51
51.869004767204238
0
ARC
5
195
100
AcDbEntity
8
0
100
AcDbCircle
10
-0.65178433925696877
20
0.51977866197886835
30
0
40
0.060039370078740238
210
0
220
0
230
1
100
AcDbArc
50
230.98861153049467
51
321.42857142857139
0
ARC
5
196
100
AcDbEntity
8
0
100
AcDbCircle
10
-0.70023407665328008
20
0.4599725289778987
30
0
40
0.016929133858267657
210
0
220
-0
230
1
100
AcDbArc
50
50.988611530494659
51
146.69969979281109
0
ARC
5
197
100
AcDbEntity
8
0
100
AcDbCircle
10
-1.0280586721708268e-06
20
1.3691754475593389e-07
30
0
40
0.85472440944880412
210
0
220
0
230
1
100
AcDbArc
50
146.69969979281103
51
149.01217767244466
0
ARC
5
198
100
AcDbEntity
8
0
100
AcDbCircle
10
-0.7182434904348588
20
0.43131176888592698
30
0
40
0.016928559601336608
210
0
220
0
230
1
100
AcDbArc
50
148.88382725739484
51
244.72614764260203
0
ARC
5
199
100
AcDbEntity
8
0
100
AcDbCircle
10
-0.75110458085433873
20
0.36171140298105769
30
0
40
0.060039370078740203
210
-0
220
0
230
1
100
AcDbArc
50
-25.714285714285666
51
64.726147624346893
0
ARC
5
200
100
AcDbEntity
8
0
100
AcDbCircle
10
-0.75110437368726479
20
0.36171129800754481
30
0
40
0.060039370078740086
210
0
220
0
230
1
100
AcDbArc
50
243.84575438763775
51
334.28571428571439
0
ARC
5
201
100
AcDbEntity
8
0
100
AcDbCircle
10
-0.78503125844111676
20
0.29262354880987562
30
0
40
0.016929133858267772
210
0
220
-0
230
1
100
AcDbArc
50
63.845754387636994
51
159.55684264995401
0
ARC
5
202
100
AcDbEntity
8
0
100
AcDbCircle
10
-1.0280586721708268e-06
20
1.3691754475593389e-07
30
0
40
0.85472440944880423
210
0
220
0
230
1
100
AcDbArc
50
159.55684264995389
51
161.86932052958755
0
ARC
5
203
100
AcDbEntity
8
0
100
AcDbCircle
10
-0.79621151951524649
20
0.26067390223718284
30
0
40
0.016928559601336508
210
0
220
0
230
1
100
AcDbArc
50
161.74097011453753
51
257.58329049974554
0
ARC
5
204
100
AcDbEntity
8
0
100
AcDbCircle
10
-0.81276117536507497
20
0.18550628228749216
30
0
40
0.060039370078739801
210
0
220
0
230
1
100
AcDbArc
50
-12.857142857143009
51
77.583290481489996
0
ARC
5
205
100
AcDbEntity
8
0
100
AcDbCircle
10
-0.81276095003330839
20
0.18550622604489475
30
0
40
0.06003937007874003
210
0
220
0
230
1
100
AcDbArc
50
256.70289724478073
51
347.14285714285722
0
ARC
5
206
100
AcDbEntity
8
0
100
AcDbCircle
10
-0.83046374647680965
20
0.11060120888061439
30
0
40
0.016929133858267689
210
0
220
-0
230
1
100
AcDbArc
50
76.702897244779521
51
172.41398550709701
0
ARC
5
207
100
AcDbEntity
8
0
100
AcDbCircle
10
-1.0280586721708268e-06
20
1.3691754475593389e-07
30
0
40
0.85472440944880423
210
0
220
0
230
1
100
AcDbArc
50
172.41398550709675
51
174.72646338673044
0
ARC
5
208
100
AcDbEntity
8
0
100
AcDbCircle
10
-0.83425422986852882
20
0.076964764516461087
30
0
40
0.016928559601336487
210
0
220
0
230
1
100
AcDbArc
50
174.59811297168028
51
270.44043335688849
0
ARC
5
209
100
AcDbEntity
8
0
100
AcDbCircle
10
-0.83366258229905144
20
-8.9114112709799868e-07
30
0
40
0.060039370078740009
210
0
220
0
230
1
100
AcDbArc
50
0
51
90.440433338632744
0
ARC
5
210
100
AcDbEntity
8
0
100
AcDbCircle
10
-0.83366235010166689
20
-8.9583256983480671e-07
30
0
40
0.060039370078740106
210
0
220
0
230
1
100
AcDbArc
50
269.56004010192316
51
360
0
ARC
5
211
100
AcDbEntity
8
0
100
AcDbCircle
10
-0.83425336610070011
20
-0.076967130626731856
30
0
40
0.016929133858267734
210
0
220
-0
230
1
100
AcDbArc
50
89.560040101923136
51
185.27112836423964
0
ARC
5
212
100
AcDbEntity
8
0
100
AcDbCircle
10
-1.0280586721708268e-06
20
1.3691754475593389e-07
30
0
40
0.8547244094488039
210
0
220
0
230
1
100
AcDbArc
50
185.27112836423959
51
187.58360624387316
0
ARC
5
213
100
AcDbEntity
8
0
100
AcDbCircle
10
-0.83046400114506791
20
-0.11060370100836718
30
0
40
0.016928559601336584
210
0
220
0
230
1
100
AcDbArc
50
187.45525582882294
51
283.29757621403093
0
ARC
5
214
100
AcDbEntity
8
0
100
AcDbCircle
10
-0.81276071783592352
20
-0.18550801301859207
30
0
40
0.060039370078740426
210
0
220
-0
230
1
100
AcDbArc
50
12.857142857142998
51
103.29757619577539
0
ARC
5
215
100
AcDbEntity
8
0
100
AcDbCircle
10
-0.81276049041626808
20
-0.1855079659236312
30
0
40
0.060039370078740127
210
0
220
0
230
1
100
AcDbArc
50
-77.582817040933605
51
12.857142857142854
0
ARC
5
216
100
AcDbEntity
8
0
100
AcDbCircle
10
-0.79621008996077358
20
-0.26067600995208756
30
0
40
0.016929133858267699
210
0
220
0
230
1
100
AcDbArc
50
102.41718295906514
51
198.12827122138245
0
ARC
5
217
100
AcDbEntity
8
0
100
AcDbCircle
10
-1.0280586721708268e-06
20
1.3691754475593389e-07
30
0
40
0.85472440944880412
210
0
220
0
230
1
100
AcDbArc
50
198.12827122138245
51
200.44074910101605
0
ARC
5
218
100
AcDbEntity
8
0
100
AcDbCircle
10
-0.78503089123967529
20
-0.29262602825818362
30
0
40
0.016928559601336105
210
0
220
0
230
1
100
AcDbArc
50
200.31239868596603
51
296.15471907117399
0
ARC
5
219
100
AcDbEntity
8
0
100
AcDbCircle
10
-0.75110368873845745
20
-0.36171298164368404
30
0
40
0.060039370078740273
210
0
220
-0
230
1
100
AcDbArc
50
25.714285714285786
51
116.15471905291814
0
ARC
5
220
100
AcDbEntity
8
0
100
AcDbCircle
10
-0.75110347750030182
20
-0.3617128851238583
30
0
40
0.060039370078739975
210
0
220
0
230
1
100
AcDbArc
50
-64.725674183790957
51
25.714285714285918
0
ARC
5
221
100
AcDbEntity
8
0
100
AcDbCircle
10
-0.71824156677757234
20
-0.43131349878460501
30
0
40
0.016929133858267692
210
0
220
0
230
1
100
AcDbArc
50
115.27432581620776
51
210.98541407852525
0
ARC
5
222
100
AcDbEntity
8
0
100
AcDbCircle
10
-1.0280586721708268e-06
20
1.3691754475593389e-07
30
0
40
0.85472440944880412
210
0
220
0
230
1
100
AcDbArc
50
210.98541407852528
51
213.29789195815894
0
ARC
5
223
100
AcDbEntity
8
0
100
AcDbCircle
10
-0.70023310599515243
20
-0.45997485768563623
30
0
40
0.016928559601336327
210
0
220
0
230
1
100
AcDbArc
50
213.16954154310906
51
309.01186192831727
0
ARC
5
224
100
AcDbEntity
8
0
100
AcDbCircle
10
-0.65178323590293219
20
-0.51978014412166906
30
0
40
0.060039370078740315
210
0
220
-0
230
1
100
AcDbArc
50
38.57142857142869
51
129.01186191006099
0
ARC
5
225
100
AcDbEntity
8
0
100
AcDbCircle
10
-0.65178305143864024
20
-0.51978000301688521
30
0
40
0.060039370078740072
210
0
220
0
230
1
100
AcDbArc
50
-51.868531326648053
51
38.571428571428818
0
ARC
5
226
100
AcDbEntity
8
0
100
AcDbCircle
10
-0.60425746387170187
20
-0.58032312091411975
30
0
40
0.016929133858267678
210
0
220
0
230
1
100
AcDbArc
50
128.13146867335149
51
223.84255693566837
0
ARC
5
227
100
AcDbEntity
8
0
100
AcDbCircle
10
-1.0280586721708268e-06
20
1.3691754475593389e-07
30
0
40
0.85472440944880412
210
0
220
0
230
1
100
AcDbArc
50
223.84255693566814
51
226.15503481530178
0
ARC
5
228
100
AcDbEntity
8
0
100
AcDbCircle
10
-0.58032276044837439
20
-0.60425862019537635
30
0
40
0.016928559601336598
210
0
220
0
230
1
100
AcDbArc
50
226.02668440025158
51
321.86900478545948
0
ARC
5
229
100
AcDbEntity
8
0
100
AcDbCircle
10
-0.51977970156061459
20
-0.65178335289491063
30
0
40
0.060039370078740127
210
0
220
-0
230
1
100
AcDbArc
50
51.42857142857153
51
141.86900476720416
0
ARC
5
230
100
AcDbEntity
8
0
100
AcDbCircle
10
-0.51977955311999602
20
-0.65178317428075194
30
0
40
0.060039370078740203
210
-0
220
0
230
1
100
AcDbArc
50
-39.011388469505043
51
51.428571428571438
0
ARC
5
231
100
AcDbEntity
8
0
100
AcDbCircle
10
-0.45997342011902626
20
-0.70023291167706325
30
0
40
0.016929133858267765
210
0
220
0
230
1
100
AcDbArc
50
140.98861153049378
51
236.69969979281112
0
ARC
5
232
100
AcDbEntity
8
0
100
AcDbCircle
10
-1.0280586721708268e-06
20
1.3691754475593389e-07
30
0
40
0.85472440944880412
210
0
220
0
230
1
100
AcDbArc
50
236.699699792811
51
239.01217767244466
0
ARC
5
233
100
AcDbEntity
8
0
100
AcDbCircle
10
-0.43131266002705454
20
-0.71824232545864197
30
0
40
0.016928559601336532
210
0
220
0
230
1
100
AcDbArc
50
238.88382725739467
51
334.72614764260203
0
ARC
5
234
100
AcDbEntity
8
0
100
AcDbCircle
10
-0.36171229412218514
20
-0.75110341587812191
30
0
40
0.060039370078740203
210
0
220
-0
230
1
100
AcDbArc
50
64.285714285714363
51
154.72614762434696
0
ARC
5
235
100
AcDbEntity
8
0
100
AcDbCircle
10
-0.36171218914867209
20
-0.75110320871104752
30
0
40
0.060039370078740197
210
-0
220
0
230
1
100
AcDbArc
50
-26.154245612362441
51
64.285714285714121
0
ARC
5
236
100
AcDbEntity
8
0
100
AcDbCircle
10
-0.29262443995100296
20
-0.7850300934648996
30
0
40
0.016929133858267657
210
0
220
0
230
1
100
AcDbArc
50
153.84575438763736
51
249.55684264995435
0
ARC
5
237
100
AcDbEntity
8
0
100
AcDbCircle
10
-1.0280586721708268e-06
20
1.3691754475593389e-07
30
0
40
0.85472440944880368
210
0
220
0
230
1
100
AcDbArc
50
249.55684264995386
51
251.8693205295875
0
ARC
5
238
100
AcDbEntity
8
0
100
AcDbCircle
10
-0.26067479337831018
20
-0.79621035453902966
30
0
40
0.016928559601336008
210
0
220
0
230
1
100
AcDbArc
50
251.74097011453694
51
347.58329049974583
0
ARC
5
239
100
AcDbEntity
8
0
100
AcDbCircle
10
-0.18550717342861936
20
-0.81276001038885837
30
0
40
0.060039370078740203
210
0
220
-0
230
1
100
AcDbArc
50
77.142857142857196
51
167.58329048148977
0
ARC
5
240
100
AcDbEntity
8
0
100
AcDbCircle
10
-0.18550711718602189
20
-0.81275978505709123
30
0
40
0.060039370078739968
210
0
220
0
230
1
100
AcDbArc
50
-13.297102755219482
51
77.142857142857224
0
ENDSEC
0
SECTION
2
OBJECTS
0
DICTIONARY
5
C
100
AcDbDictionary
3
ACAD_GROUP
350
D
3
ACAD_MLINESTYLE
350
17
0
DICTIONARY
5
D
100
AcDbDictionary
0
DICTIONARY
5
1A
330
C
100
AcDbDictionary
0
DICTIONARY
5
17
100
AcDbDictionary
0
ENDSEC
0
EOF
