0
SECTION
2
HEADER
9
$INSUNITS
70
1
9
$ACADVER
1
AC1014
9
$HANDSEED
5
FFFF
0
ENDSEC
0
SECTION
2
TABLES
0
TABLE
2
VPORT
5
8
100
AcDbSymbolTable
0
ENDTAB
0
TABLE
2
LTYPE
5
5
100
AcDbSymbolTable
0
LTYPE
5
14
100
AcDbSymbolTableRecord
100
AcDbLinetypeTableRecord
2
BYBLOCK
70
0
0
LTYPE
5
15
100
AcDbSymbolTableRecord
100
AcDbLinetypeTableRecord
2
BYLAYER
70
0
0
ENDTAB
0
TABLE
2
LAYER
5
2
100
AcDbSymbolTable
70
2
0
LAYER
5
50
100
AcDbSymbolTableRecord
100
AcDbLayerTableRecord
2
0
70
0
6
CONTINUOUS
0
ENDTAB
0
TABLE
2
STYLE
5
3
100
AcDbSymbolTable
70
1
0
STYLE
5
11
100
AcDbSymbolTableRecord
100
AcDbTextStyleTableRecord
2
STANDARD
70
0
0
ENDTAB
0
TABLE
2
VIEW
5
6
100
AcDbSymbolTable
70
0
0
ENDTAB
0
TABLE
2
UCS
5
7
100
AcDbSymbolTable
70
0
0
ENDTAB
0
TABLE
2
APPID
5
9
100
AcDbSymbolTable
70
2
0
APPID
5
12
100
AcDbSymbolTableRecord
100
AcDbRegAppTableRecord
2
ACAD
70
0
0
ENDTAB
0
TABLE
2
DIMSTYLE
5
A
100
AcDbSymbolTable
70
1
0
ENDTAB
0
TABLE
2
BLOCK_RECORD
5
1
100
AcDbSymbolTable
70
1
0
BLOCK_RECORD
5
1F
100
AcDbSymbolTableRecord
100
AcDbBlockTableRecord
2
*MODEL_SPACE
0
BLOCK_RECORD
5
1B
100
AcDbSymbolTableRecord
100
AcDbBlockTableRecord
2
*PAPER_SPACE
0
ENDTAB
0
ENDSEC
0
SECTION
2
BLOCKS
0
BLOCK
5
20
100
AcDbEntity
100
AcDbBlockBegin
2
*MODEL_SPACE
0
ENDBLK
5
21
100
AcDbEntity
100
AcDbBlockEnd
0
BLOCK
5
1C
100
AcDbEntity
100
AcDbBlockBegin
2
*PAPER_SPACE
0
ENDBLK
5
1D
100
AcDbEntity
100
AcDbBlockEnd
0
ENDSEC
0
SECTION
2
ENTITIES
0
LWPOLYLINE
5
100
100
AcDbEntity
8
0
100
AcDbPolyline
90
8
70
1
43
0.0
10
1.5304192797823111
20
-0.70977874771637273
42
0.22060498056299549
10
1.5304192797823113
20
0.70977868764239893
42
0.42553038229615875
10
1.4452624595211456
20
0.73912812062356792
10
0.97224590822081602
20
0.49722060653074085
42
0.39756586505707603
10
0.94352323556257678
20
0.41634354185966072
42
-0.21082582501751132
10
0.94352323556257678
20
-0.41634360193363257
42
0.39756586505707503
10
0.97224590822081525
20
-0.49722066660471276
10
1.4452624595211443
20
-0.73912818069754149
42
0.42553038229616019
0
LWPOLYLINE
5
101
100
AcDbEntity
8
0
100
AcDbPolyline
90
8
70
1
43
0.0
10
-0.70977871767938727
20
-1.5304193098192966
42
0.22060498056299624
10
0.70977871767938494
20
-1.5304193098192971
42
0.4255303822961567
10
0.73912815066055371
20
-1.4452624895581312
10
0.49722063656772664
20
-0.97224593825780148
42
0.39756586505707525
10
0.41634357189664489
20
-0.94352326559955935
42
-0.21082582501751224
10
-0.41634357189664684
20
-0.94352326559956246
42
0.39756586505707703
10
-0.49722063656772697
20
-0.97224593825780115
10
-0.73912815066055559
20
-1.4452624895581299
42
0.42553038229616019
0
LWPOLYLINE
5
102
100
AcDbEntity
8
0
100
AcDbPolyline
90
8
70
1
43
0.0
10
-1.5304192797823108
20
0.70977868764240137
42
0.22060498056299671
10
-1.5304192797823113
20
-0.70977874771637017
42
0.42553038229615703
10
-1.4452624595211454
20
-0.73912818069753949
10
-0.9722459082208158
20
-0.49722066660471231
42
0.39756586505707525
10
-0.94352323556257711
20
-0.41634360193363223
42
-0.21082582501751318
10
-0.94352323556257678
20
0.41634354185966116
42
0.39756586505707703
10
-0.97224590822081547
20
0.49722060653074129
10
-1.4452624595211443
20
0.73912812062356992
42
0.42553038229615947
0
LWPOLYLINE
5
103
100
AcDbEntity
8
0
100
AcDbPolyline
90
8
70
1
43
0.0
10
0.70977871767938661
20
1.5304192497453248
42
0.22060498056299621
10
-0.70977871767938494
20
1.5304192497453253
42
0.4255303822961547
10
-0.73912815066055393
20
1.4452624294841598
10
-0.49722063656772669
20
0.97224587818383035
42
0.3975658650570762
10
-0.41634357189664806
20
0.94352320552559465
42
-0.21082582501751224
10
0.41634357189664672
20
0.9435232055255911
42
0.39756586505707703
10
0.49722063656772691
20
0.97224587818382979
10
0.73912815066055559
20
1.4452624294841587
42
0.42553038229615975
0
CIRCLE
5
104
100
AcDbEntity
8
0
100
AcDbCircle
10
-0.99999999999999989
20
0.99999996996301388
30
0
40
0.15699999999999995
210
0
220
0
230
1
0
CIRCLE
5
105
100
AcDbEntity
8
0
100
AcDbCircle
10
0.99999999999999978
20
-1.0000000300369856
30
0
40
0.15699999999999995
210
0
220
0
230
1
0
CIRCLE
5
106
100
AcDbEntity
8
0
100
AcDbCircle
10
-0.99999999999999989
20
-1.0000000300369856
30
0
40
0.15699999999999995
210
0
220
0
230
1
0
CIRCLE
5
107
100
AcDbEntity
8
0
100
AcDbCircle
10
0.99999999999999978
20
0.99999996996301388
30
0
40
0.15699999999999995
210
0
220
0
230
1
0
CIRCLE
5
108
100
AcDbEntity
8
0
100
AcDbCircle
10
-4.5457950614573337e-15
20
-3.0036985890672811e-08
30
0
40
0.68749999999999978
210
0
220
-0
230
1
0
LWPOLYLINE
5
109
100
AcDbEntity
8
0
100
AcDbPolyline
90
256
70
1
43
0.0
10
-0.31040950693927005
20
-1.9582274632068017
42
0.004972737883757003
10
-0.27139998569165191
20
-1.9640139785067257
42
0.43584778981078348
10
-0.25218817951461986
20
-1.9483272937263671
42
-1.0347494531640007
10
-0.13275733377793789
20
-1.9600901662931112
42
0.43584944767143391
10
-0.1169749472056076
20
-1.9792235150793829
42
0.0049727378837542127
10
-0.077586089782989198
20
-1.9811585650082062
42
0.43584778981038047
10
-0.06000435768726442
20
-1.9636643296006326
42
-1.0347494531639956
10
0.060004359014477204
20
-1.9636642907545976
42
0.43584944767143696
10
0.077586145214655386
20
-1.9811585628373922
42
0.0049727378837528171
10
0.11697500258309701
20
-1.9792235118064929
42
0.43584778981100042
10
0.13275733890633701
20
-1.9600902048220026
42
-1.0347494531640073
10
0.25218817702786406
20
-1.9483272549372976
42
0.43584944767140738
10
0.27140004064359985
20
-1.9640139709131141
42
0.0049727378837528171
10
0.31040956172930401
20
-1.9582274545217282
42
0.43584778981096323
10
0.32424050975372731
20
-1.93763934016591
42
-1.0347494531640047
10
0.44194328503639152
20
-1.9142267628802061
42
0.43584944767141498
10
0.46260020531879315
20
-1.9279548510989677
42
0.0049727378837542127
10
0.50085470710893931
20
-1.9183725966631731
42
0.4358477898107837
10
0.51260106724429644
20
-1.8965279497318837
42
-1.0347494531639989
10
0.62744223761924423
20
-1.8616912209630587
42
0.43584944767142647
10
0.64934527713377022
20
-1.8733284724306822
42
0.004972737883757003
10
0.68647634786409095
20
-1.860042762298884
42
0.43584778981041544
10
0.69602499624105629
20
-1.8371519586835761
42
-1.0347494531640065
10
0.80689857845900692
20
-1.791226575173368
42
0.43584944767141942
10
0.82983679896171314
20
-1.8006609167966519
42
0.0049727378837542127
10
0.8654868461231281
20
-1.7837996996201393
42
0.43584778981077915
10
0.87274582403804812
20
-1.7600831902730012
42
-1.034749453164004
10
0.97858404489257766
20
-1.7035114385699808
42
0.43584944767141504
10
1.0023365387807168
20
-1.7106520124817559
42
0.0049727378837542127
10
1.0361622329307825
20
-1.6903776709992115
42
0.4358477898107887
10
1.0410616324581561
20
-1.6660638588700254
42
-1.0347494531640022
10
1.1408452120253789
20
-1.5993905558683583
42
0.43584944767143086
10
1.1651832297983737
20
-1.6041685944384201
42
0.0049727378837542127
10
1.1968588110114373
20
-1.5806763816413911
42
0.43584778981040573
10
1.1993514482555143
20
-1.5559994220322557
42
-1.0347494531640016
10
1.2921194161169447
20
-1.4798666680871826
42
0.43584944767141681
10
1.3168085693591274
20
-1.4822361561921598
42
0.0049727378837542127
10
1.3460289844724389
20
-1.4557523149320568
42
0.4358477898107822
10
1.3460908539739789
20
-1.4309498604537807
42
-1.0347494531639989
10
1.4309498038869815
20
-1.3460908556041891
42
0.43584944767142791
10
1.4557523225561657
20
-1.3460289737783373
42
0.0049727378837528171
10
1.482236162998698
20
-1.3168085579240221
42
0.43584778981077821
10
1.4798666689205622
20
-1.2921194697716447
42
-1.0347494531640007
10
1.555999362808854
20
-1.1993514526228874
42
0.43584944767142747
10
1.5806763850918197
20
-1.1968587968220168
42
0.0049727378837528171
10
1.6041685970025632
20
-1.1651832149516812
42
0.43584778981100775
10
1.5993905588680293
20
-1.1408452625405281
42
-1.0347494531639989
10
1.6660637972711021
20
-1.0410616398099044
42
0.43584944767142686
10
1.6903776699534319
20
-1.0361622156720027
42
0.0049727378837528171
10
1.7106520104895462
20
-1.0023365209546808
42
0.435847789810966
10
1.7035114434177816
20
-0.97858409207096098
42
-1.0347494531640007
10
1.760083126602515
20
-0.87274583459264343
42
0.43584944767141304
10
1.7837996937989631
20
-0.86548682625045481
42
0.0049727378837528171
10
1.8006609099780015
20
-0.82983677861728355
42
0.43584778981099292
10
1.7912265815333406
20
-0.80689862213554231
42
-1.0347494531640022
10
1.8371518932654363
20
-0.69602501018612384
42
0.43584944767143091
10
1.8600427514691069
20
-0.68647632585816198
42
0.004972737883757003
10
1.8733284605619926
20
-0.64934525475613458
42
0.43584778981079064
10
1.8616912284846803
20
-0.62744227766257543
42
-1.0347494531640022
10
1.8965278829068306
20
-0.51260108473481081
42
0.43584944767141165
10
1.9183725806398049
20
-0.50085468347099549
42
0.0049727378837542127
10
1.9279548340052659
20
-0.46260018141272136
42
0.43584778981038519
10
1.9142267712017651
20
-0.44194332135015235
42
-1.0347494531639947
10
1.937639272288231
20
-0.32424053091051724
42
0.43584944767143513
10
1.9582274331698162
20
-0.31040953697625601
42
0.004972737883757003
10
1.9640139484697399
20
-0.27140001572863809
42
0.43584778981078348
10
1.9483272636893814
20
-0.2521882095516062
42
-1.034749453164004
10
1.9600901362561265
20
-0.13275736381492426
42
0.4358494476714192
10
1.979223485042398
20
-0.11697497724259288
42
0.0049727378837528171
10
1.98115853497122
20
-0.077586119819997329
42
0.43584778981078454
10
1.9636642995636473
20
-0.060004387724250388
42
-1.0347494531639947
10
1.9636642607176122
20
0.060004328977491923
42
0.43584944767142569
10
1.981158532800406
20
0.077586115177669862
42
0.0049727378837528171
10
1.9792234817695078
20
0.11697497254610092
42
0.4358477898111851
10
1.9600901747850166
20
0.13275730886935105
42
-1.0347494531639956
10
1.9483272249003107
20
0.25218814699087844
42
0.43584944767142891
10
1.9640139408761281
20
0.27140001060661378
42
0.0049727378837542127
10
1.9582274244847404
20
0.3104095316923281
42
0.43584778981078393
10
1.9376393101289242
20
0.32424047971674053
42
-1.0347494531640007
10
1.9142267328432201
20
0.44194325499940545
42
0.43584944767142764
10
1.9279548210619823
20
0.46260017528180686
42
0.004972737883757003
10
1.9183725666261817
20
0.50085467707197495
42
0.43584778981039002
10
1.8965279196948979
20
0.5126010372073101
42
-1.034749453163998
10
1.8616911909260738
20
0.62744220758225799
42
0.43584944767142408
10
1.8733284423936973
20
0.64934524709678487
42
0.0049727378837542127
10
1.8600427322619055
20
0.68647631782708562
42
0.43584778981078914
10
1.8371519286465907
20
0.69602496620407017
42
-1.0347494531639989
10
1.7912265451363827
20
0.8068985484220218
42
0.4358494476714147
10
1.8006608867596661
20
0.82983676892472835
42
0.004972737883757003
10
1.7837996695831533
20
0.86548681608614297
42
0.43584778981078193
10
1.7600831602360154
20
0.87274579400106278
42
-1.0347494531639938
10
1.7035114085329932
20
0.97858401485559221
42
0.43584944767144318
10
1.7106519824447701
20
1.0023365087437304
42
0.0049727378837542127
10
1.6903776409622262
20
1.0361622028937962
42
0.43584778981078193
10
1.6660638288330405
20
1.0410616024211699
42
-1.0347494531640082
10
1.5993905258313739
20
1.1408451819883934
42
0.43584944767140493
10
1.6041685644014347
20
1.1651831997613877
42
0.0049727378837542127
10
1.5806763516044191
20
1.196858780974434
42
0.43584778981080013
10
1.5559993919952704
20
1.1993514182185283
42
-1.0347494531639989
10
1.4798666380501972
20
1.2921193860799589
42
0.43584944767141753
10
1.4822361261551744
20
1.3168085393221411
42
0.0049727378837583986
10
1.4557522848950559
20
1.34602895443547
42
0.43584778981037775
10
1.4309498304167956
20
1.3460908239369929
42
-1.0347494531640016
10
1.3460908255672039
20
1.4309497738499959
42
0.43584944767141892
10
1.3460289437413517
20
1.4557522925191804
42
0.004972737883757003
10
1.3168085278870363
20
1.4822361329617122
42
0.43584778981078243
10
1.2921194397346587
20
1.4798666388835766
42
-1.0347494531640007
10
1.1993514225859017
20
1.5559993327718689
42
0.43584944767142358
10
1.1968587667850312
20
1.5806763550548342
42
0.0049727378837514215
10
1.1651831849146956
20
1.6041685669655785
42
0.43584778981100408
10
1.1408452325035425
20
1.5993905288310444
42
-1.0347494531639947
10
1.0410616097729184
20
1.6660637672341168
42
0.43584944767142547
10
1.0361621856350169
20
1.6903776399164461
42
0.0049727378837514215
10
1.0023364909176951
20
1.7106519804525604
42
0.435847789810966
10
0.9785840620339753
20
1.703511413380796
42
-1.0347494531640022
10
0.87274580455565764
20
1.7600830965655292
42
0.43584944767142153
10
0.86548679621346902
20
1.7837996637619771
42
0.0049727378837583986
10
0.82983674858026646
20
1.8006608799410309
42
0.43584778981038375
10
0.80689859209855685
20
1.7912265514963548
42
-1.0347494531640007
10
0.69602498014913838
20
1.8371518632284509
42
0.43584944767142397
10
0.6864762958211762
20
1.8600427214321209
42
0.0049727378837528171
10
0.64934522471914891
20
1.8733284305250069
42
0.43584778981078248
10
0.62744224762559053
20
1.8616911984476949
42
-1.034749453163992
10
0.51260105469782447
20
1.8965278528698444
42
0.43584944767142142
10
0.50085465343401059
20
1.9183725506028189
42
0.0049727378837542127
10
0.46260015137575838
20
1.9279548039682743
42
0.43584778981078764
10
0.44194329131316762
20
1.9142267411647791
42
-1.0347494531640016
10
0.32424050087353185
20
1.9376392422512456
42
0.43584944767142847
10
0.31040950693927039
20
1.9582274031328308
42
0.004972737883757003
10
0.27139998569165252
20
1.9640139184327543
42
0.43584778981078348
10
0.25218817951462041
20
1.9483272336523954
42
-1.034749453163992
10
0.13275733377793864
20
1.9600901062191405
42
0.43584944767142059
10
0.11697494720560785
20
1.9792234550054115
42
0.0049727378837542127
10
0.077586089782989434
20
1.9811585049342348
42
0.43584778981038219
10
0.060004357687264871
20
1.9636642695266613
42
-1.0347494531639989
10
-0.06000435901447692
20
1.9636642306806267
42
0.43584944767143108
10
-0.077586145214655344
20
1.9811585027634209
42
0.0049727378837528171
10
-0.11697500258309697
20
1.9792234517325218
42
0.43584778981100042
10
-0.13275733890633684
20
1.9600901447480312
42
-1.0347494531640047
10
-0.252188177027864
20
1.9483271948633258
42
0.43584944767142914
10
-0.27140004064360024
20
1.9640139108391435
42
0.0049727378837528171
10
-0.3104095617293024
20
1.9582273944477573
42
0.43584778981099354
10
-0.32424050975372759
20
1.9376392800919393
42
-1.034749453163998
10
-0.44194328503639141
20
1.9142267028062341
42
0.43584944767143197
10
-0.46260020531879253
20
1.9279547910249968
42
0.0049727378837542127
10
-0.50085470710893853
20
1.9183725365892017
42
0.43584778981077982
10
-0.5126010672442961
20
1.8965278896579125
42
-1.0347494531640082
10
-0.62744223761924423
20
1.8616911608890885
42
0.43584944767140643
10
-0.64934527713376988
20
1.8733284123567111
42
0.0049727378837542127
10
-0.6864763478640924
20
1.860042702224912
42
0.43584778981038325
10
-0.69602499624105596
20
1.8371518986096047
42
-1.0347494531640031
10
-0.80689857845900681
20
1.7912265150993969
42
0.4358494476714227
10
-0.82983679896171347
20
1.8006608567226798
42
0.0049727378837528171
10
-0.86548684612311688
20
1.7837996395461728
42
0.43584778981099637
10
-0.8727458240380479
20
1.7600831301990298
42
-1.0347494531639989
10
-0.97858404489257733
20
1.7035113784960083
42
0.43584944767144562
10
-1.0023365387807164
20
1.7106519524077848
42
0.004972737883757003
10
-1.0361622329307818
20
1.6903776109252406
42
0.4358477898107887
10
-1.0410616324581548
20
1.6660637987960547
42
-1.0347494531639989
10
-1.1408452120253785
20
1.5993904957943881
42
0.43584944767140493
10
-1.1651832297983731
20
1.604168534364449
42
0.0049727378837597942
10
-1.1968588110114466
20
1.5806763215674131
42
0.43584778981019612
10
-1.1993514482555134
20
1.5559993619582848
42
-1.034749453164004
10
-1.2921194161169447
20
1.4798666080132117
42
0.43584944767140776
10
-1.3168085693591267
20
1.4822360961181882
42
0.0049727378837528171
10
-1.3460289844724389
20
1.4557522548580855
42
0.43584778981078892
10
-1.3460908539739784
20
1.4309498003798091
42
-1.0347494531639896
10
-1.4309498038869808
20
1.346090795530217
42
0.43584944767144396
10
-1.4557523225561646
20
1.3460289137043666
42
0.0049727378837542127
10
-1.4822361629986969
20
1.3168084978500518
42
0.43584778981078454
10
-1.4798666689205613
20
1.2921194096976742
42
-1.0347494531639989
10
-1.555999362808854
20
1.1993513925489172
42
0.43584944767142098
10
-1.5806763850918197
20
1.1968587367480457
42
0.0049727378837514215
10
-1.6041685970025634
20
1.1651831548777101
42
0.4358477898109912
10
-1.5993905588680299
20
1.1408452024665574
42
-1.0347494531640016
10
-1.6660637972711023
20
1.0410615797359333
42
0.43584944767141975
10
-1.6903776699534314
20
1.0361621555980312
42
0.004972737883757003
10
-1.7106520104895462
20
1.0023364608807097
42
0.43584778981097699
10
-1.7035114434177812
20
0.97858403199698984
42
-1.0347494531639956
10
-1.7600831266025141
20
0.87274577451867197
42
0.43584944767142464
10
-1.7837996937989624
20
0.8654867661764839
42
0.0049727378837542127
10
-1.8006609099780011
20
0.82983671854331309
42
0.43584778981100819
10
-1.7912265815333395
20
0.80689856206157073
42
-1.0347494531639947
10
-1.8371518932654363
20
0.69602495011215304
42
0.43584944767142686
10
-1.8600427514691069
20
0.68647626578419085
42
0.0049727378837542127
10
-1.873328460561992
20
0.64934519468216345
42
0.43584778981079286
10
-1.8616912284846805
20
0.62744221758860474
42
-1.034749453163998
10
-1.8965278829068299
20
0.51260102466083945
42
0.43584944767142725
10
-1.9183725806398053
20
0.50085462339702524
42
0.0049727378837542127
10
-1.9279548340052604
20
0.46260012133877293
42
0.43584778981078764
10
-1.9142267712017651
20
0.44194326127618166
42
-1.0347494531640047
10
-1.9376392722882321
20
0.32424047083654678
42
0.43584944767140393
10
-1.9582274331698157
20
0.31040947690228343
42
0.0049727378837528171
10
-1.9640139484697396
20
0.27139995565466568
42
0.43584778981078465
10
-1.9483272636893811
20
0.25218814947763341
42
-1.0347494531639905
10
-1.9600901362561249
20
0.1327573037409516
42
0.43584944767144862
10
-1.9792234850423975
20
0.11697491716862239
42
0.0049727378837597942
10
-1.9811585349712206
20
0.077586059746003966
42
0.43584778981038219
10
-1.9636642995636471
20
0.060004327650279396
42
-1.034749453163998
10
-1.9636642607176122
20
-0.060004389051462409
42
0.43584944767142569
10
-1.981158532800406
20
-0.077586175251640341
42
0.0049727378837528171
10
-1.9792234817695069
20
-0.11697503262008195
42
0.4358477898109992
10
-1.9600901747850166
20
-0.13275736894332135
42
-1.0347494531640047
10
-1.9483272249003118
20
-0.25218820706484896
42
0.43584944767140749
10
-1.9640139408761284
20
-0.27140007068058558
42
0.0049727378837514215
10
-1.9582274244847424
20
-0.31040959176628968
42
0.43584778981096395
10
-1.9376393101289247
20
-0.32424053979071282
42
-1.034749453163998
10
-1.9142267328432194
20
-0.44194331507337697
42
0.43584944767143929
10
-1.9279548210619823
20
-0.46260023535577821
42
0.0049727378837583986
10
-1.9183725666261817
20
-0.5008547371459463
42
0.43584778981039002
10
-1.8965279196948979
20
-0.51260109728128145
42
-1.034749453163998
10
-1.8616911909260738
20
-0.62744226765622935
42
0.43584944767142408
10
-1.8733284423936973
20
-0.64934530717075623
42
0.0049727378837542127
10
-1.8600427322619055
20
-0.68647637790105698
42
0.43584778981078914
10
-1.8371519286465907
20
-0.69602502627804153
42
-1.0347494531639989
10
-1.7912265451363827
20
-0.80689860849599315
42
0.43584944767141043
10
-1.8006608867596658
20
-0.82983682899869882
42
0.0049727378837528171
10
-1.7837996695831537
20
-0.86548687616011377
42
0.43584778981077915
10
-1.7600831602360154
20
-0.87274585407503413
42
-1.0347494531640031
10
-1.7035114085329943
20
-0.97858407492956301
42
0.43584944767143069
10
-1.7106519824447701
20
-1.0023365688177017
42
0.0049727378837542127
10
-1.6903776409622262
20
-1.0361622629677676
42
0.43584778981078193
10
-1.6660638288330405
20
-1.041061662495141
42
-1.034749453164004
10
-1.5993905258313734
20
-1.1408452420623645
42
0.43584944767141065
10
-1.6041685644014343
20
-1.1651832598353595
42
0.0049727378837542127
10
-1.5806763516044184
20
-1.196858841048406
42
0.43584778981078925
10
-1.5559993919952697
20
-1.1993514782924999
42
-1.0347494531639956
10
-1.4798666380501964
20
-1.29211944615393
42
0.43584944767142975
10
-1.4822361261551746
20
-1.3168085993961123
42
0.0049727378837528171
10
-1.4557522848950801
20
-1.3460290145094149
42
0.43584778981099931
10
-1.4309498304167956
20
-1.3460908840109638
42
-1.0347494531639947
10
-1.3460908255672033
20
-1.4309498339239661
42
0.43584944767143935
10
-1.3460289437413522
20
-1.4557523525931502
42
0.0049727378837542127
10
-1.3168085278870205
20
-1.482236193035698
42
0.43584778981038014
10
-1.2921194397346598
20
-1.4798666989575471
42
-1.034749453164004
10
-1.199351422585903
20
-1.5559993928458391
42
0.43584944767141526
10
-1.1968587667850314
20
-1.5806764151288055
42
0.0049727378837528171
10
-1.1651831849146859
20
-1.6041686270395561
42
0.43584778981078137
10
-1.1408452325035425
20
-1.5993905889050148
42
-1.0347494531639971
10
-1.0410616097729188
20
-1.6660638273080874
42
0.4358494476714333
10
-1.0361621856350169
20
-1.6903776999904172
42
0.0049727378837542127
10
-1.0023364909176686
20
-1.7106520405265482
42
0.43584778981042271
10
-0.97858406203397552
20
-1.7035114734547669
42
-1.0347494531639914
10
-0.87274580455565742
20
-1.7600831566394992
42
0.4358494476714429
10
-0.86548679621347002
20
-1.7837997238359478
42
0.0049727378837542127
10
-0.82983674858028833
20
-1.8006609400149918
42
0.43584778981080086
10
-0.80689859209855763
20
-1.7912266115703255
42
-1.0347494531640016
10
-0.69602498014913972
20
-1.8371519233024225
42
0.43584944767140676
10
-0.68647629582117631
20
-1.8600427815060927
42
0.0049727378837597942
10
-0.64934522471912903
20
-1.8733284905989853
42
0.43584778981042049
10
-0.62744224762558987
20
-1.8616912585216656
42
-1.034749453163992
10
-0.51260105469782502
20
-1.8965279129438151
42
0.4358494476714419
10
-0.5008546534340107
20
-1.9183726106767909
42
0.0049727378837514215
10
-0.46260015137578081
20
-1.9279548640422408
42
0.43584778981119487
10
-0.44194329131316729
20
-1.9142268012387504
42
-1.034749453163998
10
-0.32424050087353207
20
-1.9376393023252172
42
0.43584944767141365
0
ENDSEC
0
SECTION
2
OBJECTS
0
DICTIONARY
5
C
100
AcDbDictionary
3
ACAD_GROUP
350
D
3
ACAD_MLINESTYLE
350
17
0
DICTIONARY
5
D
100
AcDbDictionary
0
DICTIONARY
5
1A
330
C
100
AcDbDictionary
0
DICTIONARY
5
17
100
AcDbDictionary
0
ENDSEC
0
EOF
