0
SECTION
2
HEADER
9
$INSUNITS
70
1
9
$ACADVER
1
AC1014
9
$HANDSEED
5
FFFF
0
ENDSEC
0
SECTION
2
TABLES
0
TABLE
2
VPORT
5
8
100
AcDbSymbolTable
0
ENDTAB
0
TABLE
2
LTYPE
5
5
100
AcDbSymbolTable
0
LTYPE
5
14
100
AcDbSymbolTableRecord
100
AcDbLinetypeTableRecord
2
BYBLOCK
70
0
0
LTYPE
5
15
100
AcDbSymbolTableRecord
100
AcDbLinetypeTableRecord
2
BYLAYER
70
0
0
ENDTAB
0
TABLE
2
LAYER
5
2
100
AcDbSymbolTable
70
2
0
LAYER
5
50
100
AcDbSymbolTableRecord
100
AcDbLayerTableRecord
2
0
70
0
6
CONTINUOUS
0
ENDTAB
0
TABLE
2
STYLE
5
3
100
AcDbSymbolTable
70
1
0
STYLE
5
11
100
AcDbSymbolTableRecord
100
AcDbTextStyleTableRecord
2
STANDARD
70
0
0
ENDTAB
0
TABLE
2
VIEW
5
6
100
AcDbSymbolTable
70
0
0
ENDTAB
0
TABLE
2
UCS
5
7
100
AcDbSymbolTable
70
0
0
ENDTAB
0
TABLE
2
APPID
5
9
100
AcDbSymbolTable
70
2
0
APPID
5
12
100
AcDbSymbolTableRecord
100
AcDbRegAppTableRecord
2
ACAD
70
0
0
ENDTAB
0
TABLE
2
DIMSTYLE
5
A
100
AcDbSymbolTable
70
1
0
ENDTAB
0
TABLE
2
BLOCK_RECORD
5
1
100
AcDbSymbolTable
70
1
0
BLOCK_RECORD
5
1F
100
AcDbSymbolTableRecord
100
AcDbBlockTableRecord
2
*MODEL_SPACE
0
BLOCK_RECORD
5
1B
100
AcDbSymbolTableRecord
100
AcDbBlockTableRecord
2
*PAPER_SPACE
0
ENDTAB
0
ENDSEC
0
SECTION
2
BLOCKS
0
BLOCK
5
20
100
AcDbEntity
100
AcDbBlockBegin
2
*MODEL_SPACE
0
ENDBLK
5
21
100
AcDbEntity
100
AcDbBlockEnd
0
BLOCK
5
1C
100
AcDbEntity
100
AcDbBlockBegin
2
*PAPER_SPACE
0
ENDBLK
5
1D
100
AcDbEntity
100
AcDbBlockEnd
0
ENDSEC
0
SECTION
2
ENTITIES
0
LWPOLYLINE
5
100
100
AcDbEntity
8
0
100
AcDbPolyline
90
8
70
1
43
0.0
10
0.97224590822081614
20
0.49722060653074085
10
1.4452624595211458
20
0.73912812062356803
42
-0.42553038229615853
10
1.530419279782312
20
0.70977868764239904
42
-0.22060498056299552
10
1.5304192797823108
20
-0.70977874771637206
42
-0.42553038229616202
10
1.4452624595211443
20
-0.7391281806975416
10
0.97224590822081558
20
-0.49722066660471298
42
-0.39756586505707714
10
0.94352323556257711
20
-0.41634360193363251
42
0.21082582501751126
10
0.94352323556257711
20
0.41634354185965977
42
-0.39756586505708053
0
LWPOLYLINE
5
101
100
AcDbEntity
8
0
100
AcDbPolyline
90
8
70
1
43
0.0
10
0.49722063656772664
20
-0.9722459382578017
10
0.73912815066055382
20
-1.4452624895581314
42
-0.42553038229615836
10
0.70977871767938383
20
-1.5304193098192953
42
-0.22060498056299599
10
-0.70977871767938627
20
-1.5304193098192964
42
-0.42553038229616197
10
-0.73912815066055593
20
-1.4452624895581299
10
-0.4972206365677273
20
-0.97224593825780115
42
-0.39756586505707692
10
-0.41634357189664672
20
-0.94352326559956246
42
0.21082582501751201
10
0.41634357189664534
20
-0.94352326559956268
42
-0.39756586505707864
0
LWPOLYLINE
5
102
100
AcDbEntity
8
0
100
AcDbPolyline
90
8
70
1
43
0.0
10
-0.97224590822081602
20
-0.49722066660471231
10
-1.4452624595211456
20
-0.73912818069753949
42
-0.42553038229615797
10
-1.5304192797823126
20
-0.70977874771637128
42
-0.22060498056299646
10
-1.5304192797823111
20
0.70977868764240049
42
-0.42553038229616341
10
-1.4452624595211443
20
0.73912812062357025
10
-0.97224590822081558
20
0.49722060653074146
42
-0.39756586505707714
10
-0.94352323556257678
20
0.41634354185966083
42
0.21082582501751265
10
-0.943523235562577
20
-0.41634360193363118
42
-0.39756586505707925
0
LWPOLYLINE
5
103
100
AcDbEntity
8
0
100
AcDbPolyline
90
8
70
1
43
0.0
10
-0.49722063656772664
20
0.97224587818383013
10
-0.73912815066055393
20
1.4452624294841596
42
-0.42553038229615869
10
-0.70977871767938661
20
1.5304192497453293
42
-0.22060498056299599
10
0.70977871767938616
20
1.5304192497453253
42
-0.4255303822961623
10
0.73912815066055571
20
1.4452624294841585
10
0.49722063656772725
20
0.97224587818382979
42
-0.39756586505707764
10
0.41634357189664623
20
0.94352320552559077
42
0.21082582501751188
10
-0.41634357189664545
20
0.94352320552559132
42
-0.39756586505708008
0
CIRCLE
5
104
100
AcDbEntity
8
0
100
AcDbCircle
10
-3.4967654318902565e-15
20
-3.0036985715834536e-08
30
0
40
0.68749999999999989
210
0
220
-0
230
1
0
CIRCLE
5
105
100
AcDbEntity
8
0
100
AcDbCircle
10
0.99999999999999989
20
0.9999999699630141
30
0
40
0.18499999999999997
210
0
220
-0
230
1
0
CIRCLE
5
106
100
AcDbEntity
8
0
100
AcDbCircle
10
-0.99999999999999978
20
0.9999999699630141
30
0
40
0.18499999999999997
210
0
220
-0
230
1
0
CIRCLE
5
107
100
AcDbEntity
8
0
100
AcDbCircle
10
0.99999999999999989
20
-1.0000000300369856
30
0
40
0.18499999999999997
210
0
220
-0
230
1
0
CIRCLE
5
108
100
AcDbEntity
8
0
100
AcDbCircle
10
-0.99999999999999989
20
-1.0000000300369856
30
0
40
0.18499999999999997
210
0
220
-0
230
1
0
CIRCLE
5
109
100
AcDbEntity
8
0
100
AcDbCircle
10
-3.4967654318902565e-15
20
-3.0036985715834536e-08
30
0
40
1.875
210
0
220
0
230
1
0
ENDSEC
0
SECTION
2
OBJECTS
0
DICTIONARY
5
C
100
AcDbDictionary
3
ACAD_GROUP
350
D
3
ACAD_MLINESTYLE
350
17
0
DICTIONARY
5
D
100
AcDbDictionary
0
DICTIONARY
5
1A
330
C
100
AcDbDictionary
0
DICTIONARY
5
17
100
AcDbDictionary
0
ENDSEC
0
EOF
